<svg xmlns="http://www.w3.org/2000/svg" xmlns:xlink="http://www.w3.org/1999/xlink" width="800" zoomAndPan="magnify" viewBox="0 0 600 599.999999" height="800" preserveAspectRatio="xMidYMid meet" version="1.0"><defs><clipPath id="id1"><path d="M 0 0 L 308.25 0 L 308.25 600 L 0 600 Z M 0 0 " clip-rule="nonzero"/></clipPath></defs><path fill="#fda4bd" d="M 170.242188 137.855469 C 71.085938 122.636719 15.433594 40.003906 0 0.589844 L 0 599.410156 C 308.542969 585.949219 339.015625 369.363281 287.738281 333.074219 C 252.085938 307.839844 294.183594 156.878906 170.242188 137.855469 Z M 170.242188 137.855469 " fill-opacity="0.302" fill-rule="nonzero"/><g clip-path="url(#id1)"><path stroke-linecap="butt" transform="matrix(0.586027, 0, 0, 0.585358, 0.0000003, 0.00391882)" fill="none" stroke-linejoin="miter" d="M 290.502504 235.499468 C 121.301559 209.500431 26.335996 68.334203 -0.000000511922 1.000968 L -0.000000511922 1023.999004 C 526.49996 1001.002936 578.498722 630.997136 490.998691 569.002513 C 430.161272 525.893227 501.997019 267.998264 290.502504 235.499468 Z M 290.502504 235.499468 " stroke="#fda4bd" stroke-width="1" stroke-opacity="0.302" stroke-miterlimit="4"/></g></svg>