<svg xmlns="http://www.w3.org/2000/svg" viewBox="0 0 500 500"><g id="freepik--Shadows--inject-27"><ellipse id="freepik--Shadow--inject-27" cx="412.76" cy="337.39" rx="64.71" ry="37.36" style="fill:#ebebeb"></ellipse><path id="freepik--shadow--inject-27" d="M411.43,372.37,190.61,244.89a15.2,15.2,0,0,0-13.7,0L38.2,325c-5.11,2.95-5.12,7.78,0,10.73L257.38,462.28a13.38,13.38,0,0,0,12.09,0l142-82C415.2,378.11,415.21,374.55,411.43,372.37Z" style="fill:#ebebeb"></path></g><g id="freepik--Device--inject-27"><g id="freepik--Mobile--inject-27"><g id="freepik--mobile--inject-27"><path d="M195.58,160.46,406.11,354c5.29,4.86,4.33,9.86,3.53,14.35s-3.51,10.59-8.47,13.46L274.24,455.1c-5,2.87-12.08,2.34-15.9-1.18L47.8,260.36c-3.82-3.52-3.87-8.94-3.07-13.42s3.05-11.52,8-14.38l126.94-73.29C184.63,156.41,190.25,155.56,195.58,160.46Z" style="fill:#37474f"></path><path d="M188.67,166.19,58.15,241.55,269.59,435.89l-3.73,21a12.48,12.48,0,0,1-7.52-3L47.8,260.36c-3.82-3.52-3.87-8.94-3.07-13.42s3.05-11.52,8-14.38l126.94-73.29c3.09-1.79,6.77-3,10.56-1.91l-.11.65Z" style="fill:#263238"></path><path d="M403.86,355.05,193.68,161.82c-3-2.79-8.72-3.21-12.64-.94L57.13,232.42c-5.33,3.07-6.33,8.68-2.23,12.46l208.87,192c2.67,2.46,7.69,2.83,11.16.83l127.3-73.5C406.16,362,406.89,357.83,403.86,355.05Z" style="fill:#455a64"></path><path d="M112.38,302.71a8.21,8.21,0,0,1,2,6.78,3.06,3.06,0,0,1-1.27,2.24c-.42.23-2,1.2-2.48,1.44a1.84,1.84,0,0,1-2.2-.49L91.67,297.29a8.2,8.2,0,0,1-2-6.78,3.08,3.08,0,0,1,1.19-2.18c.44-.28,2.11-1.25,2.55-1.49a1.85,1.85,0,0,1,2.21.49Z" style="fill:#455a64"></path><path d="M109.92,304.14,93.18,288.75c-1.51-1.38-3.07-.59-3.49,1.76a8.24,8.24,0,0,0,2,6.78l16.73,15.39c1.51,1.38,3.07.59,3.49-1.76A8.24,8.24,0,0,0,109.92,304.14Z" style="fill:#37474f"></path><path d="M83.09,275.79a8.19,8.19,0,0,1,2,6.77,3,3,0,0,1-1.27,2.24c-.42.23-2,1.2-2.48,1.44a1.84,1.84,0,0,1-2.2-.49L62.37,270.37a8.28,8.28,0,0,1-2-6.78,3.18,3.18,0,0,1,1.19-2.19c.45-.28,2.12-1.24,2.56-1.49a1.85,1.85,0,0,1,2.21.49Z" style="fill:#455a64"></path><path d="M80.63,277.21,63.89,261.83c-1.51-1.39-3.07-.6-3.49,1.76a8.28,8.28,0,0,0,2,6.78l16.74,15.38c1.51,1.39,3.07.6,3.49-1.76A8.24,8.24,0,0,0,80.63,277.21Z" style="fill:#37474f"></path><path d="M197.07,172.24,393.33,352.68c2.9,2.66,2.21,6.6-1.54,8.76l-115.18,66.5c-3.74,2.17-9.14,1.77-12.05-.9L66.9,245.31a4.88,4.88,0,0,1-.24-7.36l.5-.5a9.47,9.47,0,0,1,1.29-.89l32.39-18.71,2.12-1.22a3.38,3.38,0,0,1,3.74.28,3.5,3.5,0,0,0,3.88.2l37.76-21.8c1.23-.72,1.53-2,.63-2.8a1.59,1.59,0,0,1,.26-2.59l.21-.13,31.7-18.29.67-.4C186.55,168.36,193.41,168.88,197.07,172.24Z"></path><path d="M105.74,222.31A3.38,3.38,0,0,0,102,222l-2.11,1.22L67.49,242a9.63,9.63,0,0,0-1.28.89l-.51.5c0,.06-.09.13-.14.18a5.57,5.57,0,0,0,1.34,1.79L264.56,427c2.91,2.67,8.31,3.07,12.05.9l115.18-66.5a7.81,7.81,0,0,0,1.93-1.55,5.82,5.82,0,0,0-1.35-1.82L196.11,177.63c-3.66-3.36-10.51-3.87-15.26-1.13l-.67.39L149.32,194.7s-.72,4.09-.81,4.58a2.19,2.19,0,0,1-1.13,1.43L109.62,222.5A3.5,3.5,0,0,1,105.74,222.31Z" style="fill:#fff"></path><path d="M110.83,208.76l17.31-10a2.9,2.9,0,0,1,3.22.16c.75.69.52,1.73-.51,2.32l-17.31,10a2.9,2.9,0,0,1-3.22-.16C109.57,210.39,109.8,209.35,110.83,208.76Z" style="fill:#263238"></path><path d="M136.47,193.13a3.38,3.38,0,0,1,3.73.28,1.61,1.61,0,0,1-.48,2.71,3.36,3.36,0,0,1-3.73-.28A1.61,1.61,0,0,1,136.47,193.13Z" style="fill:#263238"></path></g><g id="freepik--Feed--inject-27"><path d="M99.39,240.23a.34.34,0,0,1-.16-.08l-.5-.46-1.56.9a.18.18,0,0,1-.23,0l-.18-.17a.3.3,0,0,1-.08-.09.29.29,0,0,1,0-.11l-.13-2.61a.28.28,0,0,1,0-.1s0-.05.09-.08l.22-.13a.33.33,0,0,1,.18,0,.27.27,0,0,1,.17.08l1.75,1.61.34-.2a.33.33,0,0,1,.18,0,.29.29,0,0,1,.16.09l.12.11c.05,0,.08.09.07.12s0,.08-.1.11l-.35.2.51.46a.21.21,0,0,1,.07.13.2.2,0,0,1-.11.12l-.26.15A.28.28,0,0,1,99.39,240.23Zm-1-1-1.25-1.15.12,1.8Z" style="fill:#455a64"></path><path d="M100.94,238.88a2.9,2.9,0,0,1-1.61-.8,1.66,1.66,0,0,1-.69-1.32,1.51,1.51,0,0,1,.89-1.13,3.71,3.71,0,0,1,.68-.3,2.43,2.43,0,0,1,.66-.12.13.13,0,0,1,.1,0,.09.09,0,0,1,0,.06l.07.28s0,.06,0,.07l-.08,0a2.3,2.3,0,0,0-1,.31,1,1,0,0,0-.6.77,1.29,1.29,0,0,0,.54,1,2.15,2.15,0,0,0,1.17.61,1.7,1.7,0,0,0,1.14-.23,2.41,2.41,0,0,0,.35-.25,1,1,0,0,0,.23-.25l-.81-.75-.66.38a.3.3,0,0,1-.17.05.33.33,0,0,1-.16-.09l-.12-.11c0-.05-.08-.09-.07-.13s0-.07.1-.11l1-.6a.31.31,0,0,1,.2-.05.34.34,0,0,1,.19.11l1.16,1.06a.35.35,0,0,1,.09.1.12.12,0,0,1,0,.1,2.12,2.12,0,0,1-1,.94A2.68,2.68,0,0,1,100.94,238.88Z" style="fill:#455a64"></path><path d="M113.93,231.1a.69.69,0,0,1-.2,1.17,1.44,1.44,0,0,1-1.61-.12.7.7,0,0,1,.21-1.17A1.46,1.46,0,0,1,113.93,231.1Z" style="fill:#455a64"></path><path d="M111.18,229.93a2,2,0,0,0-1.13,2.12.42.42,0,0,0,.44.26h0c.28,0,.49-.19.45-.38a1.38,1.38,0,0,1,.79-1.49,2.79,2.79,0,0,1,2.17-.22.52.52,0,0,0,.62-.23h0c0-.15,0-.31-.25-.37A4,4,0,0,0,111.18,229.93Z" style="fill:#455a64"></path><path d="M110.06,228.9a3.26,3.26,0,0,0-1.87,3.13.42.42,0,0,0,.45.3h0c.27,0,.48-.17.45-.36a2.64,2.64,0,0,1,1.52-2.56,5.27,5.27,0,0,1,3.77-.5.5.5,0,0,0,.59-.23h0c.06-.17-.07-.33-.29-.38A6.46,6.46,0,0,0,110.06,228.9Z" style="fill:#455a64"></path><polygon points="82.5 250.54 81.53 249.65 83.2 248.69 84.17 249.58 82.5 250.54" style="fill:#455a64"></polygon><polygon points="85 249.1 83.07 247.32 84.74 246.36 86.67 248.13 85 249.1" style="fill:#455a64"></polygon><polygon points="87.5 247.65 84.61 244.99 86.27 244.03 89.17 246.69 87.5 247.65" style="fill:#455a64"></polygon><polygon points="90 246.21 86.14 242.66 87.81 241.69 91.67 245.24 90 246.21" style="fill:#455a64"></polygon><path d="M191.58,182.92a1.36,1.36,0,0,0-.9.1l-6.24,3.59c-.4.24-.39.72,0,1.1l1.76,1.61a1.81,1.81,0,0,0,.9.43,1.69,1.69,0,0,0,.44,0,1,1,0,0,0,.46-.13l6.24-3.59c.4-.23.4-.71,0-1.1l-1.75-1.61A1.93,1.93,0,0,0,191.58,182.92Zm-4.46,6.57a.79.79,0,0,1-.39-.21L185,187.67c-.31-.28-.31-.66,0-.83l6.24-3.59a.68.68,0,0,1,.24-.08h.14a.79.79,0,0,1,.39.21l1.75,1.61c.31.28.32.66,0,.83l-6.24,3.59A.56.56,0,0,1,187.12,189.49Z" style="fill:#455a64"></path><path d="M186.45,186.43l2.08,1.91-1,.57a.39.39,0,0,1-.3,0l-1.55-1.42c-.22-.21-.22-.5,0-.62Z" style="fill:#455a64"></path><polygon points="186.91 186.18 188.08 185.5 190.15 187.41 188.98 188.08 186.91 186.18" style="fill:#455a64"></polygon><polygon points="188.54 185.24 189.71 184.57 191.79 186.48 190.61 187.15 188.54 185.24" style="fill:#455a64"></polygon><path d="M191.47,183.76l1.49,1.37c.28.26.15.58-.33.86l-.39.23-2.08-1.91.93-.54A.42.42,0,0,1,191.47,183.76Z" style="fill:#455a64"></path><path d="M192.73,183.23c.17-.1.6.08,1,.41l.33.3c.36.33.52.69.35.8l-.3.2-1.65-1.53Z" style="fill:#455a64"></path><polygon points="175.43 193.56 180.54 189.2 182.09 193.41 179.3 192.18 175.43 193.56" style="fill:#455a64"></polygon><path d="M171.36,216.29l-1.44.83-1.11-1a.56.56,0,0,0-.6,0,.26.26,0,0,0-.07.44l1.11,1-1.44.83a.26.26,0,0,0-.08.43.51.51,0,0,0,.59,0l1.45-.83,1.11,1a.53.53,0,0,0,.59,0,.25.25,0,0,0,.08-.43l-1.11-1,1.44-.83a.27.27,0,0,0,.08-.44A.54.54,0,0,0,171.36,216.29Zm-3-2.25-2.89,1.67c-1.38.79-1.63,2.24-.57,3.22l2,1.81a4,4,0,0,0,4.43.33l2.89-1.67c1.38-.8,1.64-2.24.57-3.22l-2-1.81A4,4,0,0,0,168.37,214Zm5.73,2.53a1.4,1.4,0,0,1-.42,2.35l-2.88,1.67a2.94,2.94,0,0,1-3.25-.24l-2-1.81a1.41,1.41,0,0,1,.42-2.36l2.89-1.66a2.9,2.9,0,0,1,3.24.24Z" style="fill:#455a64"></path><path d="M185.24,205a2,2,0,0,0-1.06,1.37s0,.08,0,.12H184a3.5,3.5,0,0,0-2,.43,1.67,1.67,0,0,0-.49,2.8,3.12,3.12,0,0,0,1.93.73l5.12.38a.53.53,0,0,0,.31-.06.3.3,0,0,0,.16-.21l.68-3.78a1.58,1.58,0,0,0-.54-1.48A3.5,3.5,0,0,0,185.24,205Zm3.56,1.69v.08l-.61,3.41-4.7-.35h-.11a2,2,0,0,1-1.25-.5,1.14,1.14,0,0,1,.33-1.93,2.36,2.36,0,0,1,1.42-.3,2.21,2.21,0,0,1,.59.11.63.63,0,0,0,.45,0,.27.27,0,0,0,.15-.32,1,1,0,0,1,0-.42,1.37,1.37,0,0,1,.73-.94,2.41,2.41,0,0,1,2.67.2A1.08,1.08,0,0,1,188.8,206.65Z" style="fill:#455a64"></path><path d="M203.27,197.34l-.19.73a.58.58,0,0,1-.58.32l-1.08-.06c-.33,0-.6.18-.58.41l.11,1.46c0,.18.39.19.44,0l.18-.65a.53.53,0,0,1,.56-.32l1.23,0c.33,0,.61-.19.57-.43l-.23-1.51C203.68,197.17,203.32,197.17,203.27,197.34Zm-3.77-1.16c-2,1.15-2.36,3.24-.82,4.65a5,5,0,0,0,3,1.19l.85.79a.51.51,0,0,0,.37.11.56.56,0,0,0,.23-.07.52.52,0,0,0,.11-.1l.73-1a5.6,5.6,0,0,0,1.1-.46c2-1.15,2.36-3.24.82-4.65A5.77,5.77,0,0,0,199.5,196.18Zm5.06,4.65a4.59,4.59,0,0,1-1,.42.34.34,0,0,0-.26.21l-.44.59-.48-.44a.43.43,0,0,0-.36-.19,4.13,4.13,0,0,1-2.63-1c-1.25-1.15-.95-2.85.67-3.78a4.7,4.7,0,0,1,5.21.39C206.48,198.2,206.18,199.89,204.56,200.83Z" style="fill:#455a64"></path><path d="M280.74,402l-5.81-.33a.42.42,0,0,0-.43.24l-.89,4.2a.23.23,0,0,0,.08.2l2.8,2.58a.48.48,0,0,0,.54,0l2.45-1.42-1.57-1.44a.68.68,0,0,1,.2-1.15,1.45,1.45,0,0,1,1.6.11l1.57,1.44,2.44-1.41a.23.23,0,0,0,.07-.39l-2.8-2.57A.37.37,0,0,0,280.74,402Z" style="fill:#455a64"></path><path d="M319.29,379.73a5.24,5.24,0,0,0-5.81-.43c-1.8,1-2.14,2.93-.75,4.21a5.24,5.24,0,0,0,5.81.43,3.1,3.1,0,0,0,1.46-1.65l2.37.17a.33.33,0,0,0,.38-.22l0-.12c0-.14-.1-.26-.29-.27l-2.36-.17A2.38,2.38,0,0,0,319.29,379.73ZM318,383.47a4.16,4.16,0,0,1-4.61-.35c-1.11-1-.85-2.52.59-3.35a4.17,4.17,0,0,1,4.62.35C319.72,381.14,319.46,382.64,318,383.47Z" style="fill:#455a64"></path><path d="M352.93,356.52c-2.14,1.24-2.54,3.48-.89,5a5.7,5.7,0,0,0,3.84,1.3h.23a6,6,0,0,0,2.81-.79,3.72,3.72,0,0,0,1.7-1.83h0l.06-.15h0a2.81,2.81,0,0,0-.87-3A6.24,6.24,0,0,0,352.93,356.52Zm6.71,3.85-.08.14a3.25,3.25,0,0,1-.23.29l-.08.08a2.73,2.73,0,0,1-.35.33l0,0a4.67,4.67,0,0,1-1,.57l-.05,0a4.2,4.2,0,0,1-.5.17l-.14,0-.43.1-.21,0-.27,0a.76.76,0,0,1,.24-1.26l1.48-.85a1.59,1.59,0,0,1,1.73.11Zm.3-.87a2.78,2.78,0,0,0-2.45.1l-1.48.85a1.32,1.32,0,0,0-.69,1.72,4.4,4.4,0,0,1-2.6-1c-1.37-1.25-1-3.11.73-4.13a5.16,5.16,0,0,1,5.69.42A2.35,2.35,0,0,1,359.94,359.5Zm-5.93-2a1.3,1.3,0,0,0-.39,2.19,2.71,2.71,0,0,0,3,.22,1.3,1.3,0,0,0,.39-2.19A2.75,2.75,0,0,0,354,357.51Zm2.11,1.94a1.66,1.66,0,0,1-1.83-.14.79.79,0,0,1,.24-1.33,1.66,1.66,0,0,1,1.82.14A.79.79,0,0,1,356.12,359.45Z" style="fill:#455a64"></path><path d="M218.26,370.79a.53.53,0,0,1-.31.06l-5.12-.38a3.12,3.12,0,0,1-1.93-.73,1.66,1.66,0,0,1,.49-2.8,3.5,3.5,0,0,1,2.05-.43h.19s0-.08,0-.12A2,2,0,0,1,214.7,365a3.5,3.5,0,0,1,3.86.29,1.55,1.55,0,0,1,.53,1.48l-.67,3.78A.28.28,0,0,1,218.26,370.79Zm-6.35-3.37a1.15,1.15,0,0,0-.34,1.93,2.07,2.07,0,0,0,1.26.5h.11l4.7.35.61-3.41v-.08a1.07,1.07,0,0,0-.38-1,2.39,2.39,0,0,0-2.66-.2,1.41,1.41,0,0,0-.74.94,1,1,0,0,0,0,.42.27.27,0,0,1-.15.32.63.63,0,0,1-.45,0,2.21,2.21,0,0,0-.59-.11A2.36,2.36,0,0,0,211.91,367.42Z" style="fill:#455a64"></path><path d="M234.38,361.25l-1.38.51a3.3,3.3,0,0,1-.65.79,5.87,5.87,0,0,1-6.43.52c-1.92-1.14-2.17-3.22-.55-4.64a5.87,5.87,0,0,1,6.43-.53,3,3,0,0,1,1.59,2.2l1.07.64a.25.25,0,0,1,0,.43A.41.41,0,0,1,234.38,361.25Zm-1.82-.95a2.45,2.45,0,0,0-1.31-1.92,4.78,4.78,0,0,0-5.23.43,2.21,2.21,0,0,0,.45,3.78,4.78,4.78,0,0,0,5.23-.43,2.54,2.54,0,0,0,.59-.74.43.43,0,0,1,.31-.19l.82-.31-.6-.35A.34.34,0,0,1,232.56,360.3Z" style="fill:#455a64"></path><path d="M243.39,348.86h0a.68.68,0,0,0-.2,0h-.05l-.14,0h0l-6.57,3.67h0a.27.27,0,0,0-.15.32.41.41,0,0,0,.36.22l4.2.32,3.19,1.81a.54.54,0,0,0,.48,0l0,0a.28.28,0,0,0,.16-.29l-1-5.85,0,0-.05-.1,0,0A.53.53,0,0,0,243.39,348.86Zm-5.65,3.72,4.5-2.51-1.54,2.73Zm6,1.71L241.48,353l1.52-2.7Z" style="fill:#455a64"></path><path d="M322.38,302.65l-5.28,3.05a.35.35,0,0,0-.11.58l4.6,4.22a.7.7,0,0,0,.59.14.66.66,0,0,0,.21-.08.41.41,0,0,0,.21-.26l.63-2.91,4,.21a.64.64,0,0,0,.56-.22.32.32,0,0,0-.05-.44l-4.6-4.23A.71.71,0,0,0,322.38,302.65Zm3.69,4.07-3.26-.18a.84.84,0,0,0-.4.09.42.42,0,0,0-.21.27l-.51,2.35-3.45-3.17,4.38-2.54Z" style="fill:#455a64"></path><polygon points="324.45 295.62 199.86 367.56 106.63 281.84 231.22 209.91 324.45 295.62" style="fill:#455a64"></polygon><path d="M299.37,290.34c2.3,2.11-18.42,16.87-46.28,33s-52.32,27.41-54.62,25.29,18.43-16.86,46.29-32.95S297.07,288.23,299.37,290.34Z" style="fill:#37474f"></path><path d="M353.4,375l-54.19,31.29a1.1,1.1,0,0,1-1.22-.15h0a.52.52,0,0,1,.07-.9l54.19-31.29a1.1,1.1,0,0,1,1.22.15h0A.52.52,0,0,1,353.4,375Z" style="fill:#e0e0e0"></path><path d="M242.73,374l-14.92,8.62a1.94,1.94,0,0,1-2.15-.28h0a.92.92,0,0,1,.12-1.58l14.93-8.62a2,2,0,0,1,2.15.27h0A.93.93,0,0,1,242.73,374Z" style="fill:#455a64"></path><path d="M334.74,320.28l-41.54,24a1.57,1.57,0,0,1-1.75-.22h0a.76.76,0,0,1,.1-1.3l41.54-24a1.59,1.59,0,0,1,1.75.23h0A.75.75,0,0,1,334.74,320.28Z" style="fill:#e0e0e0"></path><path d="M338.49,323.73,231,385.8a1.57,1.57,0,0,1-1.75-.22h0a.76.76,0,0,1,.1-1.3l107.52-62.07a1.57,1.57,0,0,1,1.75.22h0A.76.76,0,0,1,338.49,323.73Z" style="fill:#e0e0e0"></path><path d="M219.65,377.05a.13.13,0,0,1-.09-.05.08.08,0,0,1,0-.08l.35-1,0-.08.06-.06.33-.19a.16.16,0,0,1,.1,0,.18.18,0,0,1,.1,0l2.08,1.91a.11.11,0,0,1,0,.08.12.12,0,0,1-.06.06l-.34.2a.16.16,0,0,1-.1,0,.13.13,0,0,1-.1,0l-1.59-1.46-.23.67a.13.13,0,0,1-.06.07H220Z" style="fill:#455a64"></path><path d="M221.22,375.18a.09.09,0,0,1,0-.07s0-.06.05-.07l1.57-.91a.22.22,0,0,1,.11,0,.1.1,0,0,1,.09,0l.23.21s0,0,0,.07,0,.05-.05.07l-1.18.68.37.4a.69.69,0,0,1,.18-.16,1,1,0,0,1,.18-.11,2.06,2.06,0,0,1,.48-.21,1.66,1.66,0,0,1,.49-.07,1.39,1.39,0,0,1,.46.08,1.33,1.33,0,0,1,.41.25.93.93,0,0,1,.26.37.63.63,0,0,1,0,.36,1,1,0,0,1-.21.33,1.63,1.63,0,0,1-.38.28,2.56,2.56,0,0,1-.55.24,1.69,1.69,0,0,1-.48.07,1.07,1.07,0,0,1-.41-.07,1.09,1.09,0,0,1-.32-.17.13.13,0,0,1,0-.08.13.13,0,0,1,.06-.07l.34-.19.09,0a.23.23,0,0,1,.11,0,.66.66,0,0,0,.2.06h.2a.7.7,0,0,0,.19-.06l.19-.1a.54.54,0,0,0,.29-.31.33.33,0,0,0-.13-.34.53.53,0,0,0-.39-.13.87.87,0,0,0-.48.13.79.79,0,0,0-.18.12l-.09.1a.56.56,0,0,1-.05.08s0,0-.08.07l-.38.22a.23.23,0,0,1-.11,0,.19.19,0,0,1-.09,0Z" style="fill:#455a64"></path><path d="M225.42,375.45a.17.17,0,0,1,0-.1c0-.05,0-.08.09-.11l.36-.22a.13.13,0,0,1,.09,0,.09.09,0,0,1,.07,0l0,0,.26.65a.16.16,0,0,1,0,.1s0,.07-.09.1L226,376l-.09,0-.08,0h0Z" style="fill:#455a64"></path><path d="M226.91,373.25a.33.33,0,0,0,0-.24.58.58,0,0,0-.11-.15.63.63,0,0,0-.33-.15.72.72,0,0,0-.44.12.48.48,0,0,0-.25.27.45.45,0,0,0,.07.29.1.1,0,0,1,0,.09s0,0-.06.06l-.33.19a.17.17,0,0,1-.1,0,.18.18,0,0,1-.1,0,.76.76,0,0,1-.18-.31.74.74,0,0,1,0-.33.86.86,0,0,1,.18-.34,1.27,1.27,0,0,1,.35-.28,1.51,1.51,0,0,1,.52-.2,1.59,1.59,0,0,1,.48,0,1.29,1.29,0,0,1,.42.11,1.23,1.23,0,0,1,.32.19l.14.15a.38.38,0,0,1,.08.17.5.5,0,0,1,0,.22,2.52,2.52,0,0,1-.06.29l-.23.94,1.16-.67.1,0a.18.18,0,0,1,.1,0l.23.21a.06.06,0,0,1,0,.07.08.08,0,0,1-.05.07l-1.95,1.13a.16.16,0,0,1-.1,0,.18.18,0,0,1-.1,0l-.19-.18a.14.14,0,0,1-.06-.11.2.2,0,0,1,0-.09Z" style="fill:#455a64"></path><path d="M229.16,370.47a.12.12,0,0,1,.1,0,.17.17,0,0,1,.1,0l.22.21a.1.1,0,0,1,0,.08.28.28,0,0,1,0,.09l-.11.81a1.66,1.66,0,0,1,.41-.14,1.76,1.76,0,0,1,.39,0,1,1,0,0,1,.37.08,1.17,1.17,0,0,1,.31.2.69.69,0,0,1,.21.32.57.57,0,0,1,0,.34,1,1,0,0,1-.22.33,2.22,2.22,0,0,1-.4.31,2.62,2.62,0,0,1-.56.24,1.86,1.86,0,0,1-.5.08,1.36,1.36,0,0,1-.41,0,.87.87,0,0,1-.29-.15s0,0,0-.07,0,0,.05-.07l.33-.19a.1.1,0,0,1,.09,0l.12,0,.14,0h.17l.22-.06a1.62,1.62,0,0,0,.27-.13.77.77,0,0,0,.33-.31.24.24,0,0,0-.07-.3.41.41,0,0,0-.36-.1,1.3,1.3,0,0,0-.48.18l-.34.2a.14.14,0,0,1-.11,0,.12.12,0,0,1-.09,0l-.23-.21s0-.05,0-.08,0-.06,0-.09l.11-.77-1.15.67-.1,0a.23.23,0,0,1-.1,0l-.23-.21a.11.11,0,0,1,0-.08.12.12,0,0,1,.06-.06Z" style="fill:#455a64"></path><path d="M232.91,369.56l.14.12.15.14.15.14.13.13a1.41,1.41,0,0,1,.27.36.62.62,0,0,1,.09.37.64.64,0,0,1-.16.36,1.77,1.77,0,0,1-.45.36,2.1,2.1,0,0,1-.58.24,1.41,1.41,0,0,1-1-.12,2.47,2.47,0,0,1-.42-.27l-.28-.26a2.27,2.27,0,0,1-.27-.26,1.76,1.76,0,0,1-.28-.36.64.64,0,0,1-.09-.37.73.73,0,0,1,.15-.37,1.77,1.77,0,0,1,.45-.36,2,2,0,0,1,.58-.24,1.61,1.61,0,0,1,.53,0,1.36,1.36,0,0,1,.47.15A2.47,2.47,0,0,1,232.91,369.56Zm-1.13,1.49a1.2,1.2,0,0,0,.5.24.83.83,0,0,0,.55-.12c.19-.11.29-.23.29-.36a.72.72,0,0,0-.22-.41l-.26-.25c-.1-.09-.19-.18-.28-.25a1.2,1.2,0,0,0-.5-.24.78.78,0,0,0-.55.12c-.19.11-.29.23-.28.36a.65.65,0,0,0,.21.41l.26.25Z" style="fill:#455a64"></path><path d="M237.37,368.5a.23.23,0,0,1,.11,0,.19.19,0,0,1,.09,0l.23.21a.07.07,0,0,1,0,.08s0,.05-.05.07L236,369.92a.14.14,0,0,1-.11,0,.12.12,0,0,1-.09,0L233.67,368s0,0,0-.07a.12.12,0,0,1,.05-.07l.34-.2.11,0a.19.19,0,0,1,.09,0l1.77,1.62Z" style="fill:#455a64"></path><path d="M236.42,366.23a.12.12,0,0,1,.1,0,.17.17,0,0,1,.1,0l.25.24a.09.09,0,0,1,0,.07.13.13,0,0,1-.06.07l-.36.21-.1,0a.18.18,0,0,1-.1,0l-.25-.23a.11.11,0,0,1,0-.07.11.11,0,0,1,.06-.07Zm2.29,2a.11.11,0,0,1,0,.07.11.11,0,0,1-.06.07l-.31.19-.11,0a.13.13,0,0,1-.09,0l-1.51-1.38a.06.06,0,0,1,0-.07.08.08,0,0,1,.05-.07l.32-.19.1,0a.18.18,0,0,1,.1,0Z" style="fill:#455a64"></path><path d="M239.27,367l.56.51a.11.11,0,0,1,0,.08.13.13,0,0,1-.06.07l-.32.18a.12.12,0,0,1-.1,0,.17.17,0,0,1-.1,0l-2.11-1.95a.09.09,0,0,1,0-.07.13.13,0,0,1,.06-.07l.32-.18a.17.17,0,0,1,.1,0,.19.19,0,0,1,.09,0l1,.93.26-.8,0-.07s0-.05.08-.07l.43-.25s.05,0,.09,0a.11.11,0,0,1,.08,0l0,0a.13.13,0,0,1,0,.05l-.37,1.12,1.86.11h.06l0,0a.09.09,0,0,1,0,.07.13.13,0,0,1-.05.06l-.41.23a.31.31,0,0,1-.12.05h-.1Z" style="fill:#455a64"></path><path d="M240.63,366a1.14,1.14,0,0,1-.27-.36.7.7,0,0,1-.07-.37.77.77,0,0,1,.14-.36,1.17,1.17,0,0,1,.35-.3,1.84,1.84,0,0,1,.49-.19,1.69,1.69,0,0,1,.5,0,1.48,1.48,0,0,1,.47.12,1.28,1.28,0,0,1,.39.24l.14.14a.06.06,0,0,1,0,.07.08.08,0,0,1-.05.07l-1.4.81a.59.59,0,0,0,.17.1.68.68,0,0,0,.2,0,.83.83,0,0,0,.22,0l.2-.09a.84.84,0,0,0,.19-.14.77.77,0,0,0,.09-.13.15.15,0,0,1,0-.08s0,0,.07-.05l.33-.2.11,0a.13.13,0,0,1,.09,0,.26.26,0,0,1,.05.14.49.49,0,0,1,0,.23,1.1,1.1,0,0,1-.18.28,1.44,1.44,0,0,1-.37.29,1.48,1.48,0,0,1-.48.18,1.46,1.46,0,0,1-.51,0,1.72,1.72,0,0,1-.48-.13A1.92,1.92,0,0,1,240.63,366Zm.54-1a.71.71,0,0,0-.18.15.37.37,0,0,0-.07.14.33.33,0,0,0,0,.14.35.35,0,0,0,.07.12l.94-.54a.57.57,0,0,0-.13-.08.48.48,0,0,0-.18,0,.46.46,0,0,0-.2,0A1,1,0,0,0,241.17,364.93Z" style="fill:#455a64"></path><path d="M244.67,364.17a.12.12,0,0,0-.08,0,.44.44,0,0,0-.15,0l-.23.08-.36.13a2.49,2.49,0,0,1-.39.1,1,1,0,0,1-.3,0,.61.61,0,0,1-.25-.08,1.1,1.1,0,0,1-.21-.14.46.46,0,0,1-.13-.21.53.53,0,0,1,0-.25.91.91,0,0,1,.15-.27,1.78,1.78,0,0,1,.32-.25,2,2,0,0,1,.4-.18,1.84,1.84,0,0,1,.37-.07,1,1,0,0,1,.31,0,.76.76,0,0,1,.22.1.07.07,0,0,1,0,.08s0,0-.05.07l-.32.18a.21.21,0,0,1-.12,0h-.11l-.14,0a.65.65,0,0,0-.2.09.63.63,0,0,0-.19.15q-.08.09,0,.15a.15.15,0,0,0,.09,0,.2.2,0,0,0,.13,0l.22-.06.34-.13a1.62,1.62,0,0,1,.72-.13.81.81,0,0,1,.48.21.45.45,0,0,1,.12.21.39.39,0,0,1,0,.26.81.81,0,0,1-.17.27,1.25,1.25,0,0,1-.35.27,2.27,2.27,0,0,1-.43.19,2,2,0,0,1-.39.07,1.51,1.51,0,0,1-.32,0,.62.62,0,0,1-.23-.11s0,0,0-.07a.11.11,0,0,1,.06-.07l.32-.19a.18.18,0,0,1,.12,0h.28a.92.92,0,0,0,.23-.11.57.57,0,0,0,.13-.08l.1-.09a.14.14,0,0,0,.05-.09S244.7,364.19,244.67,364.17Z" style="fill:#455a64"></path><path d="M235.54,389.75l-.83-1.82a.19.19,0,0,1,0-.08s0-.05.07-.08l.31-.18a.2.2,0,0,1,.11,0,.1.1,0,0,1,.09,0h0l0,0,1.09,2.4a.26.26,0,0,1,0,.11s0,.06-.07.09l-.34.19a.18.18,0,0,1-.12,0,.43.43,0,0,1-.14,0l-3-1.32,0,0h0a.07.07,0,0,1,0-.07.08.08,0,0,1,.05-.07l.32-.19.12,0,.1,0Z" style="fill:#e0e0e0"></path><path d="M236,387l.1,0a.15.15,0,0,1,.1,0l.25.23a.11.11,0,0,1,0,.07.11.11,0,0,1-.06.07l-.36.21a.12.12,0,0,1-.1,0,.12.12,0,0,1-.09,0l-.26-.23a.08.08,0,0,1,0-.08s0,0,0-.07Zm2.29,2a.11.11,0,0,1,0,.08.12.12,0,0,1-.05.07l-.32.18a.2.2,0,0,1-.11,0,.12.12,0,0,1-.09,0l-1.5-1.38s0-.05,0-.08,0-.05,0-.07l.32-.18a.19.19,0,0,1,.1,0,.19.19,0,0,1,.1,0Z" style="fill:#e0e0e0"></path><path d="M238,388a1.22,1.22,0,0,1-.27-.35.72.72,0,0,1-.07-.37.69.69,0,0,1,.13-.36,1.11,1.11,0,0,1,.36-.31,1.53,1.53,0,0,1,.49-.18,2.13,2.13,0,0,1,.5,0,1.91,1.91,0,0,1,.47.12,1.53,1.53,0,0,1,.39.25l.14.13a.13.13,0,0,1,0,.08.12.12,0,0,1,0,.07l-1.4.81a.56.56,0,0,0,.17.09.64.64,0,0,0,.2,0,.78.78,0,0,0,.21,0,.89.89,0,0,0,.4-.23.31.31,0,0,0,.08-.13l0-.07.07-.06.34-.19a.12.12,0,0,1,.1,0,.13.13,0,0,1,.1,0,.37.37,0,0,1,0,.15.53.53,0,0,1,0,.23.82.82,0,0,1-.18.28,1.22,1.22,0,0,1-.36.28,1.84,1.84,0,0,1-.49.19,1.68,1.68,0,0,1-.5,0,1.55,1.55,0,0,1-.48-.13A1.66,1.66,0,0,1,238,388Zm.54-1a.54.54,0,0,0-.18.14.55.55,0,0,0-.08.15.32.32,0,0,0,0,.14l.06.12,1-.55-.14-.07a.42.42,0,0,0-.17-.05.82.82,0,0,0-.21,0A.77.77,0,0,0,238.57,387Z" style="fill:#e0e0e0"></path><path d="M242.75,385.53l-.54-1.07a.14.14,0,0,1,0-.07s0,0,.06-.07l.31-.18a.2.2,0,0,1,.11,0,.1.1,0,0,1,.09,0l0,0,.86,1.73a.15.15,0,0,1,0,.07.1.1,0,0,1-.05.07l-.32.18a.17.17,0,0,1-.11,0l-.09,0-1.27-.56.46,1s0,.05,0,.07,0,.05-.05.07l-.32.19a.15.15,0,0,1-.11,0l-.09,0-2.12-1,0,0a.06.06,0,0,1,0-.07.08.08,0,0,1,.05-.07l.32-.19a.13.13,0,0,1,.1,0l.09,0,1.3.63-.52-1.08a.08.08,0,0,1,0-.07s0-.05,0-.07l.32-.18a.12.12,0,0,1,.1,0l.09,0Z" style="fill:#e0e0e0"></path><path d="M244.37,383.71a.38.38,0,0,1-.07-.17.53.53,0,0,1,0-.24.7.7,0,0,1,.16-.25,1.31,1.31,0,0,1,.33-.26,1.78,1.78,0,0,1,.43-.18,1.21,1.21,0,0,1,.42-.05,1.1,1.1,0,0,1,.4.08,1.16,1.16,0,0,1,.36.23l.94.87a.06.06,0,0,1,0,.07.08.08,0,0,1-.05.07l-.32.19a.18.18,0,0,1-.1,0,.15.15,0,0,1-.1,0l-.1-.1a.54.54,0,0,1-.1.3,1,1,0,0,1-.35.3,1.38,1.38,0,0,1-.36.15,1,1,0,0,1-.34,0,.81.81,0,0,1-.31-.06.7.7,0,0,1-.25-.15.41.41,0,0,1-.15-.44,1.13,1.13,0,0,1,.38-.47l.59-.48a.39.39,0,0,0-.3-.11.74.74,0,0,0-.33.12.48.48,0,0,0-.15.11.61.61,0,0,0-.05.12.11.11,0,0,1,0,.07.1.1,0,0,1-.06.05l-.39.23-.09,0A.08.08,0,0,1,244.37,383.71Zm1.61.44a1.42,1.42,0,0,0,.22-.18.41.41,0,0,0,.1-.18.25.25,0,0,0,0-.17.28.28,0,0,0-.1-.14l0,0-.49.39a.53.53,0,0,0-.18.21.13.13,0,0,0,0,.15.24.24,0,0,0,.19,0Z" style="fill:#e0e0e0"></path><path d="M248.47,383.11a.09.09,0,0,1,0,.07.12.12,0,0,1-.05.07l-.32.18a.2.2,0,0,1-.11,0,.19.19,0,0,1-.09,0l-2.11-1.94s0-.05,0-.08,0,0,.05-.07l.32-.18a.12.12,0,0,1,.1,0,.15.15,0,0,1,.1,0Z" style="fill:#e0e0e0"></path><path d="M249.59,382.46a.11.11,0,0,1,0,.08.09.09,0,0,1-.06.06l-.31.19a.2.2,0,0,1-.11,0,.13.13,0,0,1-.09,0l-2.12-1.94a.07.07,0,0,1,0-.07.08.08,0,0,1,.05-.07l.32-.19a.16.16,0,0,1,.1,0,.18.18,0,0,1,.1,0Z" style="fill:#e0e0e0"></path><path d="M251.19,379.77a.27.27,0,0,0,0-.23.5.5,0,0,0-.11-.16.63.63,0,0,0-.33-.15.79.79,0,0,0-.44.12c-.16.09-.24.18-.25.27a.49.49,0,0,0,.07.3.08.08,0,0,1,0,.08.18.18,0,0,1-.05.07l-.33.19-.11,0a.1.1,0,0,1-.09,0,.7.7,0,0,1-.18-.31.62.62,0,0,1,0-.33.87.87,0,0,1,.17-.33,1.46,1.46,0,0,1,.35-.29,1.68,1.68,0,0,1,.52-.2,2.08,2.08,0,0,1,.49,0,1.44,1.44,0,0,1,.42.11,1,1,0,0,1,.31.2l.14.14a.56.56,0,0,1,.09.17.75.75,0,0,1,0,.22,1.33,1.33,0,0,1-.07.29l-.23.95,1.16-.67a.2.2,0,0,1,.11,0,.19.19,0,0,1,.09,0l.23.21a.07.07,0,0,1,0,.08.1.1,0,0,1-.05.07l-1.95,1.12a.14.14,0,0,1-.11,0,.12.12,0,0,1-.09,0l-.2-.19a.13.13,0,0,1,0-.11.22.22,0,0,1,0-.09Z" style="fill:#e0e0e0"></path><path d="M254.54,377.61l.14.13.15.14.15.14.14.12a2.11,2.11,0,0,1,.27.36.71.71,0,0,1,.08.37.64.64,0,0,1-.16.36,1.23,1.23,0,0,1-.45.36,2,2,0,0,1-.58.24,1.55,1.55,0,0,1-.52,0,1.43,1.43,0,0,1-.47-.14,2.36,2.36,0,0,1-.42-.28l-.29-.25-.27-.26a1.52,1.52,0,0,1-.27-.37.62.62,0,0,1-.09-.37.68.68,0,0,1,.15-.37,1.47,1.47,0,0,1,.45-.36,1.88,1.88,0,0,1,.58-.24,1.55,1.55,0,0,1,.52,0,1.44,1.44,0,0,1,.47.15A2.31,2.31,0,0,1,254.54,377.61Zm-1.12,1.49a1.31,1.31,0,0,0,.5.25.8.8,0,0,0,.54-.13c.2-.11.29-.23.29-.35a.64.64,0,0,0-.21-.42l-.27-.25L254,378a1.1,1.1,0,0,0-.5-.24.79.79,0,0,0-.54.12c-.2.11-.29.23-.29.36a.62.62,0,0,0,.22.41,3.18,3.18,0,0,0,.26.25A3,3,0,0,0,253.42,379.1Z" style="fill:#e0e0e0"></path><path d="M256.16,375.42a.15.15,0,0,1,.11,0,.12.12,0,0,1,.09,0l.23.21a.1.1,0,0,1,0,.08s0,.06,0,.09l-.11.81a1.53,1.53,0,0,1,.41-.14,1.7,1.7,0,0,1,.39,0,.86.86,0,0,1,.36.08.92.92,0,0,1,.31.2.64.64,0,0,1,.22.32.57.57,0,0,1,0,.34,1,1,0,0,1-.22.33,1.84,1.84,0,0,1-.4.31,2.62,2.62,0,0,1-.56.24,1.92,1.92,0,0,1-.5.08,1.33,1.33,0,0,1-.41,0,.87.87,0,0,1-.29-.15.08.08,0,0,1,0-.07.13.13,0,0,1,.06-.07l.33-.19a.1.1,0,0,1,.09,0l.12,0,.14,0h.17l.21-.06.28-.13a.83.83,0,0,0,.33-.31.24.24,0,0,0-.07-.3.42.42,0,0,0-.36-.1,1.3,1.3,0,0,0-.48.18l-.34.2a.15.15,0,0,1-.11,0,.12.12,0,0,1-.09,0l-.23-.21a.1.1,0,0,1,0-.08s0-.06,0-.09l.11-.77-1.15.67-.11,0a.19.19,0,0,1-.09,0l-.23-.21a.11.11,0,0,1,0-.08.12.12,0,0,1,.06-.06Z" style="fill:#e0e0e0"></path><path d="M259.57,375.4a.57.57,0,0,0,.11.11.53.53,0,0,0,.12.1.57.57,0,0,0,.23.12.59.59,0,0,0,.23,0l.21,0a.68.68,0,0,0,.2-.07l.16-.12a.35.35,0,0,0,.08-.1.22.22,0,0,0,0-.1.17.17,0,0,0,0-.1v-.09s0-.06.05-.07l.32-.19a.2.2,0,0,1,.11,0,.1.1,0,0,1,.09,0,.39.39,0,0,1,.1.18.53.53,0,0,1,0,.28.91.91,0,0,1-.17.32,1.37,1.37,0,0,1-.4.32,1.43,1.43,0,0,1-.47.18,1.56,1.56,0,0,1-.48,0,1.63,1.63,0,0,1-.45-.09,1.41,1.41,0,0,1-.38-.21l-.13-.11a1.59,1.59,0,0,1-.13-.13.84.84,0,0,1-.19-.31.66.66,0,0,1,0-.34.68.68,0,0,1,.16-.33,1.17,1.17,0,0,1,.35-.3,2,2,0,0,1,.52-.21,2,2,0,0,1,.47,0,1.23,1.23,0,0,1,.36.06.79.79,0,0,1,.23.12s0,0,0,.07a.08.08,0,0,1-.05.07l-.32.19-.11,0-.12,0-.13,0h-.14l-.16,0-.19.09a.44.44,0,0,0-.15.12.42.42,0,0,0-.09.14.25.25,0,0,0,0,.17A.47.47,0,0,0,259.57,375.4Z" style="fill:#e0e0e0"></path><path d="M261.74,373a1.86,1.86,0,0,1,.47-.19,2,2,0,0,1,.48-.05,2.14,2.14,0,0,1,.44.08,1.23,1.23,0,0,1,.37.21l.08.06.09.08.09.09s.05,0,.06.06a.76.76,0,0,1,.18.31.53.53,0,0,1,0,.33.7.7,0,0,1-.17.33,1.23,1.23,0,0,1-.36.29,1.72,1.72,0,0,1-.47.19,1.93,1.93,0,0,1-.47.05,1.64,1.64,0,0,1-.44-.09,1.2,1.2,0,0,1-.37-.2l-.08-.06-.09-.08-.09-.08-.07-.07a.76.76,0,0,1-.18-.31.78.78,0,0,1,0-.34.77.77,0,0,1,.17-.32A1.34,1.34,0,0,1,261.74,373Zm1.23.37a.76.76,0,0,0-.22-.11.46.46,0,0,0-.23,0,.78.78,0,0,0-.21,0l-.18.08a1,1,0,0,0-.16.12.41.41,0,0,0-.1.13.25.25,0,0,0,0,.17.39.39,0,0,0,.1.19.17.17,0,0,1,.06.06l.08.07.08.08.07.05a.64.64,0,0,0,.23.12.83.83,0,0,0,.22,0l.21,0a1.11,1.11,0,0,0,.19-.09.83.83,0,0,0,.15-.11.33.33,0,0,0,.1-.14.29.29,0,0,0,0-.16.42.42,0,0,0-.11-.19.17.17,0,0,0-.06-.06l-.08-.08-.08-.07Z" style="fill:#e0e0e0"></path><path d="M264,372a.48.48,0,0,1,.09-.27.88.88,0,0,1,.25-.22,1.42,1.42,0,0,1,.51-.18,1.75,1.75,0,0,1,.46,0,.55.55,0,0,1,0-.18.76.76,0,0,1,.09-.18.61.61,0,0,1,.13-.15,1.09,1.09,0,0,1,.17-.13,1.3,1.3,0,0,1,.46-.17,1.48,1.48,0,0,1,.42,0,1.74,1.74,0,0,1,.38.14,1.85,1.85,0,0,1,.32.25l.87.79a.11.11,0,0,1,0,.08.12.12,0,0,1-.05.07l-.32.18a.14.14,0,0,1-.11,0,.12.12,0,0,1-.09,0l-.85-.79a.86.86,0,0,0-.42-.22.71.71,0,0,0-.39.1.41.41,0,0,0-.2.24c0,.1,0,.21.17.35l.86.79a.08.08,0,0,1,0,.08.12.12,0,0,1-.05.07l-.32.18a.14.14,0,0,1-.11,0,.12.12,0,0,1-.09,0l-.85-.79a.76.76,0,0,0-.42-.21.62.62,0,0,0-.39.09.4.4,0,0,0-.2.25c0,.1,0,.22.18.35l.85.78a.07.07,0,0,1,0,.08s0,.05,0,.07l-.32.18a.14.14,0,0,1-.11,0,.12.12,0,0,1-.09,0l-1.5-1.38a.13.13,0,0,1,0-.08.12.12,0,0,1,.05-.07l.32-.18a.14.14,0,0,1,.11,0,.12.12,0,0,1,.09,0Z" style="fill:#e0e0e0"></path><path d="M267.84,369.79a.59.59,0,0,1,.1-.28.75.75,0,0,1,.25-.21,1.32,1.32,0,0,1,.5-.18,1.17,1.17,0,0,1,.46,0,.55.55,0,0,1,0-.18.75.75,0,0,1,.08-.18.7.7,0,0,1,.14-.16.66.66,0,0,1,.17-.12,1.62,1.62,0,0,1,.45-.18,1.17,1.17,0,0,1,.42,0,1,1,0,0,1,.38.14,2,2,0,0,1,.33.24l.87.8a.09.09,0,0,1,0,.07.13.13,0,0,1-.06.07l-.32.19-.1,0-.1,0-.85-.78a.67.67,0,0,0-.41-.22.64.64,0,0,0-.39.1.36.36,0,0,0-.2.24c0,.1,0,.21.16.34l.87.8a.09.09,0,0,1,0,.07.11.11,0,0,1-.06.07l-.31.19-.11,0a.19.19,0,0,1-.09,0l-.85-.78a.72.72,0,0,0-.42-.22.64.64,0,0,0-.39.1.35.35,0,0,0-.2.25c0,.1,0,.21.18.35l.85.78a.09.09,0,0,1,0,.07.11.11,0,0,1-.06.07l-.31.19-.11,0a.13.13,0,0,1-.09,0l-1.5-1.38a.06.06,0,0,1,0-.07.08.08,0,0,1,.05-.07l.32-.19.1,0a.18.18,0,0,1,.1,0Z" style="fill:#e0e0e0"></path><path d="M271.7,368.57a1.22,1.22,0,0,1-.27-.35.85.85,0,0,1-.07-.38.7.7,0,0,1,.14-.35,1,1,0,0,1,.36-.31,1.72,1.72,0,0,1,.49-.19,1.68,1.68,0,0,1,.5,0,1.91,1.91,0,0,1,.47.12,1.67,1.67,0,0,1,.38.25l.15.13a.08.08,0,0,1,0,.08s0,.05-.05.07l-1.39.8a.37.37,0,0,0,.17.1.44.44,0,0,0,.2,0l.21,0a.72.72,0,0,0,.2-.09,1.33,1.33,0,0,0,.2-.14.38.38,0,0,0,.08-.13l0-.08.07-.05.33-.19a.23.23,0,0,1,.11,0,.13.13,0,0,1,.09,0,.26.26,0,0,1,.06.14.57.57,0,0,1-.05.24.82.82,0,0,1-.18.28,1.88,1.88,0,0,1-.36.28,1.53,1.53,0,0,1-.49.18,1.42,1.42,0,0,1-.5,0,1.56,1.56,0,0,1-.48-.14A1.52,1.52,0,0,1,271.7,368.57Zm.54-1a.52.52,0,0,0-.17.15.37.37,0,0,0-.08.15.23.23,0,0,0,0,.14.24.24,0,0,0,.06.11l.94-.54a.74.74,0,0,0-.13-.08.47.47,0,0,0-.17,0,.77.77,0,0,0-.21,0A1.18,1.18,0,0,0,272.24,367.53Z" style="fill:#e0e0e0"></path><path d="M277,366.64a.06.06,0,0,1,0,.07s0,.05,0,.07l-.32.19-.1,0-.1,0-.81-.75a.89.89,0,0,0-.43-.22.78.78,0,0,0-.48.1.43.43,0,0,0-.23.31.45.45,0,0,0,.18.36l.82.75a.11.11,0,0,1,0,.08s0,.05,0,.06l-.32.19a.2.2,0,0,1-.11,0,.13.13,0,0,1-.09,0l-1.5-1.38s0,0,0-.07a.12.12,0,0,1,.05-.07l.32-.19.11,0a.19.19,0,0,1,.09,0l.07.07a.77.77,0,0,1,.12-.28.92.92,0,0,1,.29-.25,1.89,1.89,0,0,1,.49-.19,1.3,1.3,0,0,1,.44,0,1.06,1.06,0,0,1,.39.13,2,2,0,0,1,.33.24Z" style="fill:#e0e0e0"></path><path d="M277.74,365.43a.41.41,0,0,0,.23.11.51.51,0,0,0,.32-.1l.25-.14a.2.2,0,0,1,.11,0,.19.19,0,0,1,.09,0l.21.2s0,0,0,.07,0,.05-.05.07l-.31.18a1.38,1.38,0,0,1-.75.21,1,1,0,0,1-.66-.29l-.69-.63-.28.15a.17.17,0,0,1-.1,0l-.1,0-.21-.2a.09.09,0,0,1,0-.07.1.1,0,0,1,.06-.07l.27-.16-.52-.48a.07.07,0,0,1,0-.08s0-.05.05-.07L276,364a.12.12,0,0,1,.1,0,.15.15,0,0,1,.1,0l.52.49.54-.31a.2.2,0,0,1,.11,0,.19.19,0,0,1,.09,0l.21.2s0,0,0,.07,0,.05,0,.07l-.54.31Z" style="fill:#e0e0e0"></path><path d="M280.15,364.23a.13.13,0,0,0-.09,0,.42.42,0,0,0-.14,0l-.23.08-.36.13a2.81,2.81,0,0,1-.39.1,1.09,1.09,0,0,1-.31,0,.62.62,0,0,1-.24-.08,1.1,1.1,0,0,1-.21-.14.39.39,0,0,1-.13-.21.36.36,0,0,1,0-.25.91.91,0,0,1,.15-.27,1.48,1.48,0,0,1,.32-.25,2,2,0,0,1,.4-.18,1.72,1.72,0,0,1,.37-.07,1.06,1.06,0,0,1,.31,0,.9.9,0,0,1,.22.1.07.07,0,0,1,0,.08.13.13,0,0,1-.06.07l-.32.18a.19.19,0,0,1-.11,0h-.11l-.14,0a.65.65,0,0,0-.2.09.86.86,0,0,0-.2.15c0,.06,0,.11,0,.15a.12.12,0,0,0,.08,0,.2.2,0,0,0,.13,0l.22-.06.35-.13a1.62,1.62,0,0,1,.72-.13.82.82,0,0,1,.47.21.39.39,0,0,1,.13.21.47.47,0,0,1,0,.26.81.81,0,0,1-.17.27,1.41,1.41,0,0,1-.35.27,2.27,2.27,0,0,1-.43.19,2,2,0,0,1-.39.07,1.69,1.69,0,0,1-.33,0,.57.57,0,0,1-.22-.11s0,0,0-.07,0-.06.06-.07l.32-.19a.17.17,0,0,1,.11,0h.13a.46.46,0,0,0,.16,0,.92.92,0,0,0,.23-.11l.13-.08.1-.09a.2.2,0,0,0,.05-.09A.06.06,0,0,0,280.15,364.23Z" style="fill:#e0e0e0"></path><path d="M246.85,368.21a.16.16,0,0,1,.1,0,.17.17,0,0,1,.1,0l2.08,1.92a.09.09,0,0,1,0,.07.11.11,0,0,1-.06.07l-.34.2a.16.16,0,0,1-.1,0,.18.18,0,0,1-.1,0l-.85-.78-1.26.73.85.78a.07.07,0,0,1,0,.08.1.1,0,0,1-.05.07l-.34.19a.12.12,0,0,1-.1,0,.17.17,0,0,1-.1,0l-2.08-1.92a.09.09,0,0,1,0-.07.1.1,0,0,1,.06-.07l.33-.2.11,0a.13.13,0,0,1,.09,0l.83.76,1.26-.73-.83-.76a.08.08,0,0,1,0-.08.1.1,0,0,1,0-.07Z" style="fill:#455a64"></path><path d="M249,367a.19.19,0,0,1,.12,0,.48.48,0,0,1,.14.05l3.06,1.28h0a.13.13,0,0,1,0,.08.13.13,0,0,1-.06.07l-.3.17a.2.2,0,0,1-.14,0l-.1,0-.54-.22-1.32.76.18.43a.19.19,0,0,1,0,.08.19.19,0,0,1-.09.09l-.3.17a.2.2,0,0,1-.11,0,.19.19,0,0,1-.09,0l0,0-1-2.47a.26.26,0,0,1,0-.11s0-.05.08-.08Zm1.64,1.16-1.38-.58.46,1.11Z" style="fill:#455a64"></path><path d="M251.78,365.36a1.88,1.88,0,0,1,1-.28,1.17,1.17,0,0,1,.82.33.67.67,0,0,1,.26.66,1.14,1.14,0,0,1-.6.62l-.67.39.72.66a.08.08,0,0,1,0,.08.07.07,0,0,1-.05.06l-.34.2a.2.2,0,0,1-.11,0,.1.1,0,0,1-.09,0l-2.08-1.91a.07.07,0,0,1,0-.07s0-.06,0-.07Zm.38,1.35.65-.37a.8.8,0,0,0,.31-.29c0-.1,0-.2-.11-.32a.52.52,0,0,0-.4-.14,1,1,0,0,0-.44.15l-.65.38Z" style="fill:#455a64"></path><path d="M254.53,363.77a1.88,1.88,0,0,1,1-.28,1.17,1.17,0,0,1,.82.33.65.65,0,0,1,.26.66,1.14,1.14,0,0,1-.6.62l-.67.39.72.66a.07.07,0,0,1,0,.08.1.1,0,0,1-.05.07l-.34.19a.14.14,0,0,1-.11,0,.12.12,0,0,1-.09,0l-2.08-1.92a.09.09,0,0,1,0-.07.12.12,0,0,1,0-.07Zm.38,1.35.65-.37a.73.73,0,0,0,.31-.29c0-.1,0-.2-.11-.31a.52.52,0,0,0-.4-.15,1,1,0,0,0-.44.15l-.65.38Z" style="fill:#455a64"></path><path d="M258.18,361.67a.12.12,0,0,1,.1,0,.17.17,0,0,1,.1,0,.05.05,0,0,1,0,0l.35,1.8.71.65a.11.11,0,0,1,0,.08.1.1,0,0,1-.06.07l-.33.19a.12.12,0,0,1-.1,0,.15.15,0,0,1-.1,0l-.71-.66-2.33-.66,0,0a.08.08,0,0,1,0-.08s0-.05,0-.07l.31-.18a.34.34,0,0,1,.16,0l.1,0,1.59.44-.24-1.23s0,0,0-.07a.2.2,0,0,1,.09-.1Z" style="fill:#455a64"></path><path d="M261.83,359.56a.16.16,0,0,1,.1,0,.13.13,0,0,1,.1,0l2.08,1.91a.11.11,0,0,1,0,.08.12.12,0,0,1-.06.06l-.34.2a.16.16,0,0,1-.1,0,.13.13,0,0,1-.1,0l-.85-.78-1.26.73.85.78a.07.07,0,0,1,0,.08s0,.05-.05.07l-.34.19a.19.19,0,0,1-.1,0,.23.23,0,0,1-.1,0L259.64,361a.09.09,0,0,1,0-.08.12.12,0,0,1,.05-.07l.34-.2.11,0a.19.19,0,0,1,.09,0l.83.76,1.26-.73-.83-.76a.07.07,0,0,1,0-.07.08.08,0,0,1,.05-.07Z" style="fill:#455a64"></path><path d="M264,358.33a.17.17,0,0,1,.13,0,.27.27,0,0,1,.14,0l3.06,1.28,0,0a.06.06,0,0,1,0,.07s0,.05,0,.07l-.3.17a.22.22,0,0,1-.14.05l-.1,0-.54-.23-1.32.76.18.43a.19.19,0,0,1,0,.08.19.19,0,0,1-.09.09l-.3.18-.11,0a.19.19,0,0,1-.09,0l0,0-1-2.46a.3.3,0,0,1,0-.11.16.16,0,0,1,.08-.09Zm1.65,1.17-1.38-.58.46,1.11Z" style="fill:#455a64"></path><path d="M269.32,358a.2.2,0,0,1,.11,0,.19.19,0,0,1,.09,0l.23.21a.11.11,0,0,1,0,.08.12.12,0,0,1,0,.07l-1.83,1.05a.14.14,0,0,1-.11,0,.12.12,0,0,1-.09,0l-2.08-1.92s0,0,0-.07,0-.05.05-.07l.34-.2.11,0a.25.25,0,0,1,.09,0l1.76,1.62Z" style="fill:#455a64"></path><path d="M271.78,356.59a.12.12,0,0,1,.1,0,.17.17,0,0,1,.1,0l.22.21s0,.05,0,.08,0,.05-.05.07L270.35,358a.17.17,0,0,1-.1,0,.23.23,0,0,1-.1,0l-2.08-1.91a.11.11,0,0,1,0-.08.13.13,0,0,1,.06-.07l.33-.19a.14.14,0,0,1,.11,0,.12.12,0,0,1,.09,0l1.77,1.62Z" style="fill:#455a64"></path><path d="M271.13,355.45a1.42,1.42,0,0,1-.25-.37.71.71,0,0,1-.05-.38,1,1,0,0,1,.19-.39,1.71,1.71,0,0,1,.47-.37,2.19,2.19,0,0,1,.6-.25,1.79,1.79,0,0,1,.56,0,1.36,1.36,0,0,1,.5.12,1.76,1.76,0,0,1,.44.26l.14.12.15.14.16.14.12.13a1.12,1.12,0,0,1,.25.36.59.59,0,0,1,0,.39.79.79,0,0,1-.19.39,1.81,1.81,0,0,1-.46.37,2.09,2.09,0,0,1-.6.24,1.89,1.89,0,0,1-.57.05,1.46,1.46,0,0,1-.5-.12,2.05,2.05,0,0,1-.43-.26l-.14-.12-.16-.14-.15-.14Zm1.91-1.08a.91.91,0,0,0-.55-.22,1,1,0,0,0-.6.16.64.64,0,0,0-.34.38.48.48,0,0,0,.16.45l.27.25c.1.09.19.18.28.25a.94.94,0,0,0,.55.21,1.06,1.06,0,0,0,.59-.15.65.65,0,0,0,.35-.39.48.48,0,0,0-.17-.44,3.18,3.18,0,0,0-.26-.25A3,3,0,0,0,273,354.37Z" style="fill:#455a64"></path><path d="M275.8,353.26l.6,1.1a.19.19,0,0,1,0,.1.09.09,0,0,1-.06.08l-.34.2a.31.31,0,0,1-.13,0,.35.35,0,0,1-.13,0l-2.56-1.56,0,0a.07.07,0,0,1,0-.08s0-.05.05-.07l.31-.17a.17.17,0,0,1,.1,0l.12,0,1.71,1.05-.55-1s0,0,0-.07a.12.12,0,0,1,.08-.09l.34-.2a.18.18,0,0,1,.14,0l.1,0,1.17.61-1-1.46a.1.1,0,0,1,0-.09s0-.05.06-.06l.31-.18a.14.14,0,0,1,.11,0,.1.1,0,0,1,.09,0l0,0,1.5,2.18a.1.1,0,0,1,0,.1.09.09,0,0,1-.06.08l-.34.2a.2.2,0,0,1-.13,0,.38.38,0,0,1-.13,0Z" style="fill:#455a64"></path><path d="M280.42,351.6a.16.16,0,0,1,.1,0,.13.13,0,0,1,.09,0l.23.21s0,0,0,.07,0,.05-.05.07L279,353a.16.16,0,0,1-.1,0,.17.17,0,0,1-.1,0l-2.08-1.92a.06.06,0,0,1,0-.07.08.08,0,0,1,.05-.07l1.8-1a.21.21,0,0,1,.2,0l.23.21a.13.13,0,0,1,0,.08.13.13,0,0,1-.06.07l-1.35.78.52.47,1.25-.73a.2.2,0,0,1,.11,0,.13.13,0,0,1,.09,0l.23.21a.09.09,0,0,1,0,.07s0,.06-.05.07l-1.26.73.53.49Z" style="fill:#455a64"></path><path d="M283,350.12a.2.2,0,0,1,.11,0,.25.25,0,0,1,.09,0l.23.21a.11.11,0,0,1,0,.08.19.19,0,0,1-.06.07l-1.83,1.05a.2.2,0,0,1-.11,0,.25.25,0,0,1-.09,0l-2.08-1.91a.13.13,0,0,1,0-.08.1.1,0,0,1,.06-.07l1.79-1a.22.22,0,0,1,.11,0,.1.1,0,0,1,.09,0l.23.21s0,0,0,.07,0,0-.05.07l-1.35.78.51.47,1.26-.72a.17.17,0,0,1,.1,0l.1,0,.23.21a.08.08,0,0,1,0,.08s0,.05-.05.07l-1.26.72.54.49Z" style="fill:#455a64"></path><path d="M285.92,349a.24.24,0,0,1-.14,0h-.1l-2.51-.55,1.33,1.22a.09.09,0,0,1,0,.07.13.13,0,0,1-.06.07l-.33.2-.11,0a.19.19,0,0,1-.09,0l-2.08-1.91a.07.07,0,0,1,0-.08s0-.05.05-.07l.29-.17.14,0h.1l2.51.56-1.33-1.22a.08.08,0,0,1,0-.08s0-.05.05-.07l.34-.2.1,0,.1,0,2.08,1.91a.08.08,0,0,1,0,.08s0,0-.05.07Z" style="fill:#455a64"></path><path d="M286.93,347.76a.23.23,0,0,1,.11,0,.19.19,0,0,1,.09,0l.29.26a.11.11,0,0,1,0,.08.13.13,0,0,1-.06.07l-.36.2a.17.17,0,0,1-.1,0l-.1,0-.28-.26a.11.11,0,0,1,0-.08.13.13,0,0,1,.06-.07Zm-.18-.31a.06.06,0,0,1,0,.07s0,.05,0,.07l-.32.18a.17.17,0,0,1-.1,0l-.1,0-1.43-1.32a.06.06,0,0,1,0-.07s0-.05.05-.07l.32-.18a.17.17,0,0,1,.1,0l.1,0Z" style="fill:#455a64"></path><path d="M288.06,347.11a.2.2,0,0,1,.11,0,.19.19,0,0,1,.09,0l.28.26a.07.07,0,0,1,0,.08.1.1,0,0,1-.05.07l-.36.2a.2.2,0,0,1-.11,0,.19.19,0,0,1-.09,0l-.28-.26a.07.07,0,0,1,0-.08s0-.05.05-.07Zm-.19-.32s0,0,0,.08,0,.05,0,.07l-.32.18a.13.13,0,0,1-.11,0,.14.14,0,0,1-.09,0l-1.43-1.32a.09.09,0,0,1,0-.07.13.13,0,0,1,.06-.07l.31-.19.11,0a.19.19,0,0,1,.09,0Z" style="fill:#455a64"></path><path d="M289.19,346.45l.1,0a.23.23,0,0,1,.1,0l.28.26a.08.08,0,0,1,0,.08s0,.05-.05.06l-.36.21a.14.14,0,0,1-.11,0,.12.12,0,0,1-.09,0l-.29-.26a.08.08,0,0,1,0-.08s0-.05.05-.07Zm-.19-.31a.13.13,0,0,1,0,.08.1.1,0,0,1-.06.07l-.31.18a.14.14,0,0,1-.11,0,.12.12,0,0,1-.09,0L287,345.14s0,0,0-.07,0-.06.05-.07l.32-.19.11,0a.13.13,0,0,1,.09,0Z" style="fill:#455a64"></path><path d="M146.24,247.29,117,264.16a1.94,1.94,0,0,1-2.15-.27h0a.94.94,0,0,1,.12-1.59l29.23-16.87a1.94,1.94,0,0,1,2.15.27h0A.94.94,0,0,1,146.24,247.29Z" style="fill:#455a64"></path><path d="M112.91,267.12c2.17,2,1.65,4.92-1.16,6.54s-6.84,1.32-9-.67-1.65-4.92,1.16-6.54S110.74,265.13,112.91,267.12Z" style="fill:#fff"></path><path d="M109.38,271.48a1.34,1.34,0,0,0,.4-2.26,2.8,2.8,0,0,0-3.11-.24,1.34,1.34,0,0,0-.4,2.26A2.8,2.8,0,0,0,109.38,271.48Z" style="fill:#FF81AE"></path><path d="M109.39,267.39a5.78,5.78,0,0,1-1.21.69l-.06,0a.53.53,0,0,1-.22-.08c-.15-.11-.24-.16-.39-.06a6.4,6.4,0,0,0-.88-.53h0a4.18,4.18,0,0,0-.39-.18,11.42,11.42,0,0,0-1.38-.34c-.3-.06-.36.07-.65.27s-.07.35-.6.86c-.22.22-.39.37-.52.48a1.87,1.87,0,0,0-.3.31c-.05.13.62.17,1.62-.49a3,3,0,0,0,.14.28,6.66,6.66,0,0,0,.46.78c-.11.08-.07.15,0,.27s0,.27.1.35c-.4.29-.9.65-1,1s0,.32.3.32h0a2.7,2.7,0,0,0,.82-.15,9.64,9.64,0,0,0,1.92-1,1.49,1.49,0,0,0,.25-.06,4.93,4.93,0,0,0,1.5-.84l.27-.3h0a2.73,2.73,0,0,0,.64-1.13C110,267.17,109.62,267.13,109.39,267.39Z" style="fill:#455a64"></path><path d="M111.75,273.66a5,5,0,0,0,2.32-2.65l-.16-.13a2.13,2.13,0,0,0-2.24-.15l-3.81,2.2a1,1,0,0,0-.32,1.62l.14.15A8.19,8.19,0,0,0,111.75,273.66Z" style="fill:#FF81AE"></path><path d="M111.84,273.74c-2.87,1.66-7,1.35-9.22-.68s-1.68-5,1.19-6.7,7-1.35,9.22.69S114.71,272.09,111.84,273.74ZM104,266.53c-2.73,1.58-3.24,4.45-1.13,6.38s6,2.24,8.78.66,3.25-4.44,1.14-6.38S106.74,265,104,266.53Z" style="fill:#455a64"></path><path d="M144.11,253.68l-23.86,13.78a1.61,1.61,0,0,1-1.76-.23h0a.75.75,0,0,1,.11-1.29l23.86-13.78a1.57,1.57,0,0,1,1.75.22h0A.76.76,0,0,1,144.11,253.68Z" style="fill:#e0e0e0"></path><path d="M169.66,238.93l-20.61,11.9a1.59,1.59,0,0,1-1.75-.23h0a.75.75,0,0,1,.1-1.29L168,237.41a1.57,1.57,0,0,1,1.75.22h0A.76.76,0,0,1,169.66,238.93Z" style="fill:#e0e0e0"></path><path d="M289.08,378.63l-29.23,16.88a1.94,1.94,0,0,1-2.15-.28h0a.93.93,0,0,1,.13-1.59l29.23-16.87a2,2,0,0,1,2.15.27h0A.94.94,0,0,1,289.08,378.63Z" style="fill:#455a64"></path><path d="M255.75,398.46c2.17,2,1.65,4.92-1.16,6.54s-6.84,1.32-9-.67-1.65-4.92,1.16-6.54S253.59,396.47,255.75,398.46Z" style="fill:#fff"></path><path d="M252.22,402.82a1.34,1.34,0,0,0,.4-2.26,2.8,2.8,0,0,0-3.11-.23,1.34,1.34,0,0,0-.4,2.26A2.8,2.8,0,0,0,252.22,402.82Z" style="fill:#FF81AE"></path><path d="M252.23,398.73a5.44,5.44,0,0,1-1.2.69H251a.54.54,0,0,1-.22-.09c-.15-.11-.24-.15-.39-.06a5.44,5.44,0,0,0-.87-.52h0a4,4,0,0,0-.39-.18,10.45,10.45,0,0,0-1.39-.35c-.3-.06-.35.08-.65.27s-.06.35-.6.87c-.22.21-.39.37-.52.48s-.26.23-.29.31.61.16,1.61-.5l.14.28a6.72,6.72,0,0,0,.47.78c-.12.08-.08.15,0,.27s0,.28.11.36a3,3,0,0,0-1,1c-.08.22,0,.32.3.33h0a3.08,3.08,0,0,0,.81-.16,10,10,0,0,0,1.93-1l.25-.07a4.7,4.7,0,0,0,1.49-.84l.28-.3h0a2.64,2.64,0,0,0,.63-1.13C252.79,398.51,252.46,398.47,252.23,398.73Z" style="fill:#455a64"></path><path d="M254.59,405a4.93,4.93,0,0,0,2.33-2.65l-.17-.13a2.14,2.14,0,0,0-2.23-.15l-3.82,2.21a1,1,0,0,0-.31,1.62l.13.14A8.19,8.19,0,0,0,254.59,405Z" style="fill:#FF81AE"></path><path d="M254.69,405.09c-2.87,1.65-7,1.35-9.22-.69s-1.68-5,1.19-6.7,7-1.35,9.22.69S257.56,403.43,254.69,405.09Zm-7.84-7.21c-2.74,1.58-3.25,4.44-1.14,6.38s6,2.23,8.79.65,3.24-4.44,1.13-6.38S249.58,396.3,246.85,397.88Z" style="fill:#455a64"></path><path d="M287,385,263.09,398.8a1.58,1.58,0,0,1-1.75-.23h0a.75.75,0,0,1,.1-1.29L285.3,383.5a1.59,1.59,0,0,1,1.75.23h0A.75.75,0,0,1,287,385Z" style="fill:#e0e0e0"></path><path d="M312.5,370.27l-20.6,11.9a1.59,1.59,0,0,1-1.76-.22h0a.77.77,0,0,1,.1-1.3l20.61-11.9a1.59,1.59,0,0,1,1.75.23h0A.75.75,0,0,1,312.5,370.27Z" style="fill:#e0e0e0"></path><path d="M146.42,234.21,98.81,261.69a4,4,0,0,1-4.44-.56h0a1.92,1.92,0,0,1,.26-3.28l47.61-27.49a4,4,0,0,1,4.43.57h0A1.92,1.92,0,0,1,146.42,234.21Z" style="fill:#e0e0e0"></path><path d="M354,328.89,236.67,396.64a.71.71,0,0,1-.8-.06.34.34,0,0,1,.1-.57l117.36-67.76a.73.73,0,0,1,.79.06A.35.35,0,0,1,354,328.89Z" style="fill:#e0e0e0"></path><path d="M236.51,232.37c-3-1.52-8.3-.54-11.08,1.28a13.94,13.94,0,0,0-9.16,2.24c-3.36,2.46-4.9,6.41-4,9.76-5.39,2.58-8.37,6.8-9,11.58-.71,5.88,2.56,9.72,9.1,12.83.92.44,1.63-.88,1.13-1.33-2.14-2-4.81-3.43-6.06-5.88a9.27,9.27,0,0,1-.31-7.09,12.35,12.35,0,0,1,6.33-7.59,10.53,10.53,0,0,0,10.85,4c4.35-1.06,6-4.55,3.16-7.09-3.09-2.79-8.65-1.78-12.62-.45-.17,0-.33.12-.5.18a7.28,7.28,0,0,1,1.49-5.5,9.67,9.67,0,0,1,8-3.92c-.79,1.7-.61,4.16,1.78,4.69,3.92.87,5.23-3.46,3.11-5.11a5.11,5.11,0,0,0-1.13-.67,19.94,19.94,0,0,1,2.8-1.26c2.2-.66,3.84-.91,5.54-.31C236.18,232.76,236.78,232.51,236.51,232.37ZM225,246.31c2.37,1.77-.4,3.64-3,3.8a7.88,7.88,0,0,1-4.57-1.2,7.31,7.31,0,0,1-1.84-1.67C218.33,246.06,222.83,244.73,225,246.31Zm.58-8.84a2.25,2.25,0,0,1,.44-2A2.48,2.48,0,0,1,227.6,237a.9.9,0,0,1-.25,1,1.34,1.34,0,0,1-1.45,0,1.07,1.07,0,0,1-.28-.36A1,1,0,0,1,225.53,237.47Z" style="fill:#263238"></path><path d="M204.28,268.84c-4.64-4.59-16.91-6.44-24.5-5.87a4.71,4.71,0,0,0-2.59,1,12,12,0,0,0-3.64,4.23c-.61,1.35.26,2.83,2,3.43a14.66,14.66,0,0,1,6,3.71,14.23,14.23,0,0,1,3.42,8.87s6.54.38,13.91-5S204.28,268.84,204.28,268.84Z" style="fill:#37474f"></path><path d="M181.66,266.24c4.27.81,10.26,3.52,12.6,9.16,1.49,3.58,5.8-1.64,4.63-3.45S190.08,265.39,181.66,266.24Z" style="fill:#263238"></path><path d="M185,284.17a17.11,17.11,0,0,0,4.32-.52,2.94,2.94,0,0,0,.65-1.49c.73-5.47-5.93-9.59-8.84-11s-6.62-2.34-6.33-4.87h0a8.33,8.33,0,0,0-1.21,1.89c-.61,1.35.26,2.83,2,3.43a14.66,14.66,0,0,1,6,3.71A14.23,14.23,0,0,1,185,284.17Z" style="fill:#263238"></path><path d="M233.2,258.31s6.24-5.06,17.55-3.35,24.29,8.57,31.83,19.12,3.84,30.71-15.52,35.19Z" style="fill:#FF81AE"></path><path d="M284.84,278.34c1.8,6.77-2.5,12.2-4.9,10s-4.86-12.44-18.48-21a63.29,63.29,0,0,0-28.26-9l33.86,51C284.05,305.34,289,289.34,284.84,278.34Z" style="opacity:0.15"></path><path d="M245.56,256c-3.54.42-2.5,2.36,3.59,3.31a44.94,44.94,0,0,1,21.23,9.45c8,6.67,9.86,12.89,11.22,13.64s.63-8-8.72-15.83C262.88,258.16,249.46,255.52,245.56,256Z" style="fill:#fff;opacity:0.2"></path><path d="M177.36,289.42a18.66,18.66,0,0,0-13.6,13.29c-3.15,11.33,6.33,22.46,12.56,27.38,10.78,8.51,33.05,14.56,49.74.75Z" style="fill:#FF81AE"></path><path d="M176.59,308.64c4.56,12.16,16,21,26.38,24.25,9.47,2.95,3,6.08-4.12,5.93a36.24,36.24,0,0,0,27.21-8l-48.7-41.42S172,296.49,176.59,308.64Z" style="opacity:0.15"></path><path d="M167.7,299.16c-1.06,1.82-2.8,8.61-.13,15.73s14.79,18.09,23,20.24c7.38,1.93-2-2.92-6.63-6.62-9.05-7.2-14.22-17.7-12.14-27.31C173.48,293.23,169.09,296.78,167.7,299.16Z" style="fill:#fff;opacity:0.2"></path><path d="M211.35,267.88s-.32-6,10.68-9.29,31.41,4.7,41.84,14.24c11.65,10.64,19,31.54-5.45,41.23Z" style="fill:#FF81AE"></path><path d="M274.58,292.2c0,5.29-5.38,10-7.22,8.37-2.14-1.87-11-19.08-28.92-26.6s-27.09-6.09-27.09-6.09l47.07,46.18C271.5,308.88,275.48,300.5,274.58,292.2Z" style="opacity:0.1"></path><path d="M217.21,264.5c.12,1.18,2.48,1.9,9,1.61s20.58,1.56,26.7,4-2.48-5.59-13.94-8.78C226.84,258,216.92,261.55,217.21,264.5Z" style="fill:#fff;opacity:0.2"></path><path d="M188.65,280.22s-8.65,2-11.29,9.2.65,20.14,11.53,29.16c11.4,9.45,26.73,14.28,37.17,12.26s16.52-5.89,17.38-9.15Z" style="fill:#FF81AE"></path><path d="M192.43,299.92c7.95,12.75,21.66,22.07,31,24.5,5.76,1.49,5.11,6.54-5,6.77a28.81,28.81,0,0,0,7.63-.35c10.44-2,16.52-5.89,17.38-9.15l-54.79-41.47S184.49,287.17,192.43,299.92Z" style="opacity:0.1"></path><path d="M181.71,286c-1.6,1.25-3.79,7.93-1.61,15,1.85,6,4.29,8.9,5.28,9.66s-2.27-8.38-1.44-13.72C184.81,291.34,186.06,282.6,181.71,286Z" style="fill:#fff;opacity:0.2"></path><path d="M194.46,271.27c-7.24,4.86-11.62,18,8.94,34.69s37.84,19.46,50.29,12.27,8.07-23.65-10.65-37S205.09,264.14,194.46,271.27Z" style="fill:#FF81AE"></path><path d="M255,292.42c2.45,3.51,7.76,18.82-12,22.61-20.52,3.93-51.35-26-53.87-36.65-2.11,6.59.36,16.28,14.3,27.58,20.55,16.65,37.84,19.46,50.29,12.27C262.79,313,262.89,302.76,255,292.42Z" style="opacity:0.15"></path><path d="M203.41,270.13c-10.51,2.28-11.46,8.68-5.19,10.05s21.65.78,31.68,5,7.24-3.35,1-7.93C225.3,273.16,213.79,267.87,203.41,270.13Z" style="fill:#fff;opacity:0.2"></path><path d="M202.15,301.54C197,303.9,182,300.69,182,300c0-.13.27-.31.75-.55,1.92-.94,7.23-2.64,12.23-4.39s8.61-3.09,10.41-3.48a2.24,2.24,0,0,1,1-.07C208.35,292.35,207.33,299.19,202.15,301.54Z" style="fill:#FF81AE"></path><path d="M202.15,301.54C197,303.9,182,300.69,182,300c0-.13.27-.31.75-.55,1.92-.94,7.23-2.64,12.23-4.39s8.61-3.09,10.41-3.48a2.24,2.24,0,0,1,1-.07C208.35,292.35,207.33,299.19,202.15,301.54Z" style="opacity:0.35000000000000003"></path><path d="M239.38,277.85c-4.1,3.3-13.54,2.82-14.27,1.29-.05-.1,0-.28.14-.52.67-1.13,3.31-3.69,6.67-7.05,3.09-3.09,6.13-6.39,7.82-7.76.55-.45.95-.7,1.16-.67C241.78,263.24,243.48,274.55,239.38,277.85Z" style="fill:#FF81AE"></path><path d="M239.38,277.85c-4.1,3.3-13.54,2.82-14.27,1.29-.05-.1,0-.28.14-.52.67-1.13,3.31-3.69,6.67-7.05,3.09-3.09,6.13-6.39,7.82-7.76.55-.45.95-.7,1.16-.67C241.78,263.24,243.48,274.55,239.38,277.85Z" style="opacity:0.35000000000000003"></path><path d="M205.36,291.62a9,9,0,0,1-5.13,8.47c-3.82,1.74-13,.45-17.51-.6,1.92-.94,7.23-2.64,12.23-4.39S203.56,292,205.36,291.62Z" style="fill:#FF81AE"></path><path d="M205.36,291.62a9,9,0,0,1-5.13,8.47c-3.82,1.74-13,.45-17.51-.6,1.92-.94,7.23-2.64,12.23-4.39S203.56,292,205.36,291.62Z" style="fill:#fff;opacity:0.8"></path><path d="M239.74,263.81c.62,3.46.72,10.18-2.28,12.59s-9,2.82-12.21,2.22c.67-1.13,3.31-3.69,6.67-7.05C235,268.48,238.05,265.18,239.74,263.81Z" style="fill:#FF81AE"></path><path d="M239.74,263.81c.62,3.46.72,10.18-2.28,12.59s-9,2.82-12.21,2.22c.67-1.13,3.31-3.69,6.67-7.05C235,268.48,238.05,265.18,239.74,263.81Z" style="fill:#fff;opacity:0.8"></path><path d="M228.22,291c-.14.82-6.74,5-7.57,4.84-.24-.05-.56-.57-.85-1.3-.75-1.76-1.44-4.75-.9-5.14,1-.72,5.41,0,7.79.75C227.63,290.41,228.26,290.73,228.22,291Z" style="fill:#FF81AE"></path><path d="M228.22,291c-.14.82-6.74,5-7.57,4.84-.24-.05-.56-.57-.85-1.3-.75-1.76-1.44-4.75-.9-5.14,1-.72,5.41,0,7.79.75C227.63,290.41,228.26,290.73,228.22,291Z" style="opacity:0.35000000000000003"></path><path d="M226.69,290.11a29.92,29.92,0,0,1-6.89,4.39c-.75-1.76-1.44-4.75-.9-5.14C219.92,288.64,224.31,289.35,226.69,290.11Z" style="fill:#FF81AE"></path><path d="M226.69,290.11a29.92,29.92,0,0,1-6.89,4.39c-.75-1.76-1.44-4.75-.9-5.14C219.92,288.64,224.31,289.35,226.69,290.11Z" style="fill:#fff;opacity:0.8"></path><path d="M259.69,275.17c.93,1,6.47,9.94,1.85,20.33-2.73-.43-9.88,0-10.8,1.29-.38.53,1.53,3.17,3.28,5l.11.11a11.07,11.07,0,0,0,1.76,1.58,45.75,45.75,0,0,1-9.47,7.13,80.81,80.81,0,0,1-7.24,3.74c-.78-1.27-8.34-4.56-10.29-3.74-1,.43-1.5,6.19-.95,7.75-16.84,4.39-28.91.43-31-.51-1.87-.82-3.53-1.75-3.59-2.5h0c0-.39.39-.74,1.46-1s5-1.45,10-3.15c2,1.52,6.36,3.71,7.88,3.23.95-.3,2.13-5.11,2-6.8a135.72,135.72,0,0,0,14.28-6.27c2.66,1.15,8.43,2.51,9.85,1.66.89-.54,0-6.05-.87-7.63a69.92,69.92,0,0,0,8.62-7.87c1.86.54,9.54,0,10.4-1.3.42-.65-2.85-4.43-4.59-5.75l-.18-.13,0,0a27.52,27.52,0,0,0,3.18-6.23c.46-1.57,1.57-1.25,2.67-.44A15.24,15.24,0,0,1,259.69,275.17Z" style="fill:#FF81AE"></path><path d="M259.69,275.17c.93,1,6.47,9.94,1.85,20.33-2.73-.43-9.88,0-10.8,1.29-.38.53,1.53,3.17,3.28,5l.11.11a11.07,11.07,0,0,0,1.76,1.58,45.75,45.75,0,0,1-9.47,7.13,80.81,80.81,0,0,1-7.24,3.74c-.78-1.27-8.34-4.56-10.29-3.74-1,.43-1.5,6.19-.95,7.75-16.84,4.39-28.91.43-31-.51-1.87-.82-3.53-1.75-3.59-2.5h0c0-.39.39-.74,1.46-1s5-1.45,10-3.15c2,1.52,6.36,3.71,7.88,3.23.95-.3,2.13-5.11,2-6.8a135.72,135.72,0,0,0,14.28-6.27c2.66,1.15,8.43,2.51,9.85,1.66.89-.54,0-6.05-.87-7.63a69.92,69.92,0,0,0,8.62-7.87c1.86.54,9.54,0,10.4-1.3.42-.65-2.85-4.43-4.59-5.75l-.18-.13,0,0a27.52,27.52,0,0,0,3.18-6.23c.46-1.57,1.57-1.25,2.67-.44A15.24,15.24,0,0,1,259.69,275.17Z" style="opacity:0.35000000000000003"></path><path d="M258,273.65a21,21,0,0,1,1.78,20.25c-2.73-.42-9.88,0-10.8,1.29-.52.74,3.29,5.42,5,6.63a1,1,0,0,0,.13.09l0,0a45.47,45.47,0,0,1-9.45,7.11,75.89,75.89,0,0,1-7.24,3.74c-.78-1.27-8.33-4.56-10.29-3.74-1,.43-1.5,6.19-1,7.75-16.84,4.4-28.91.43-31-.51-.66-.29-1.3-.59-1.85-.9h0c0-.39.39-.74,1.46-1s5-1.45,10-3.15c2,1.52,6.36,3.71,7.88,3.23.95-.3,2.13-5.11,2-6.8a135.72,135.72,0,0,0,14.28-6.27c2.66,1.15,8.43,2.51,9.85,1.66.89-.54,0-6.05-.87-7.63a69.92,69.92,0,0,0,8.62-7.87c1.86.54,9.54,0,10.4-1.3.42-.65-2.85-4.43-4.59-5.75l-.16-.17a27.52,27.52,0,0,0,3.18-6.23C255.81,272.52,256.92,272.84,258,273.65Z" style="fill:#FF81AE"></path><path d="M258,273.65a21,21,0,0,1,1.78,20.25c-2.73-.42-9.88,0-10.8,1.29-.52.74,3.29,5.42,5,6.63a1,1,0,0,0,.13.09l0,0a45.47,45.47,0,0,1-9.45,7.11,75.89,75.89,0,0,1-7.24,3.74c-.78-1.27-8.33-4.56-10.29-3.74-1,.43-1.5,6.19-1,7.75-16.84,4.4-28.91.43-31-.51-.66-.29-1.3-.59-1.85-.9h0c0-.39.39-.74,1.46-1s5-1.45,10-3.15c2,1.52,6.36,3.71,7.88,3.23.95-.3,2.13-5.11,2-6.8a135.72,135.72,0,0,0,14.28-6.27c2.66,1.15,8.43,2.51,9.85,1.66.89-.54,0-6.05-.87-7.63a69.92,69.92,0,0,0,8.62-7.87c1.86.54,9.54,0,10.4-1.3.42-.65-2.85-4.43-4.59-5.75l-.16-.17a27.52,27.52,0,0,0,3.18-6.23C255.81,272.52,256.92,272.84,258,273.65Z" style="fill:#fff;opacity:0.8"></path></g><g id="freepik--Shine--inject-27" style="opacity:0.15"><polygon points="277.74 246.4 252.67 223.35 201.08 368.67 226.14 391.71 277.74 246.4" style="fill:#fff"></polygon><path d="M353,321.91l-42.48-39.06L260.64,423.44l3.92,3.6c2.91,2.67,8.31,3.07,12.05.9l48.78-28.17Z" style="fill:#fff"></path><path d="M178.27,347.7l51.6-145.31-32.8-30.15c-3.66-3.36-10.52-3.88-15.26-1.14l-.67.4-19.1,11L121.82,295.8Z" style="fill:#fff"></path></g></g></g><g id="freepik--social-media-icons--inject-27"><g id="freepik--social-icon--inject-27"><path d="M44.15,53.85l22.48-13a7.71,7.71,0,0,1,7,0l2.85,1.64a7.72,7.72,0,0,1,3.48,6v26a7.7,7.7,0,0,1-3.48,6L54,93.53a7.73,7.73,0,0,1-7,0l-2.84-1.64a7.72,7.72,0,0,1-3.48-6V59.9A7.74,7.74,0,0,1,44.15,53.85Z" style="fill:#FF81AE"></path><path d="M44.15,53.85l22.48-13a7.71,7.71,0,0,1,7,0l2.85,1.64a7.72,7.72,0,0,1,3.48,6v26a7.7,7.7,0,0,1-3.48,6L54,93.53a7.73,7.73,0,0,1-7,0l-2.84-1.64a7.72,7.72,0,0,1-3.48-6V59.9A7.74,7.74,0,0,1,44.15,53.85Z" style="fill:#fff;opacity:0.7000000000000001"></path><path d="M54,59.52l22.48-13c1.92-1.12,3.48-.21,3.48,2v26a7.7,7.7,0,0,1-3.48,6L54,93.53c-1.93,1.11-3.49.21-3.49-2V65.56A7.7,7.7,0,0,1,54,59.52Z" style="fill:#FF81AE"></path><path d="M54,59.52l22.48-13c1.92-1.12,3.48-.21,3.48,2v26a7.7,7.7,0,0,1-3.48,6L54,93.53c-1.93,1.11-3.49.21-3.49-2V65.56A7.7,7.7,0,0,1,54,59.52Z" style="fill:#fff;opacity:0.55"></path><path d="M40.67,85.85a7.72,7.72,0,0,0,3.48,6L47,93.53a7.85,7.85,0,0,0,6.39.28c-1.65.62-2.9-.31-2.9-2.3V65.56a7.11,7.11,0,0,1,1-3.43l-9.81-5.67a7.11,7.11,0,0,0-1,3.44Z" style="fill:#FF81AE"></path><path d="M40.67,85.85a7.72,7.72,0,0,0,3.48,6L47,93.53a7.85,7.85,0,0,0,6.39.28c-1.65.62-2.9-.31-2.9-2.3V65.56a7.11,7.11,0,0,1,1-3.43l-9.81-5.67a7.11,7.11,0,0,0-1,3.44Z" style="fill:#fff;opacity:0.4"></path><path d="M69.89,71.92a25.74,25.74,0,0,0,2.25-10.67A19.45,19.45,0,0,0,74,57.64a12.8,12.8,0,0,1-2.12,2A9.93,9.93,0,0,0,73.49,56a14.82,14.82,0,0,1-2.35,2.55,2.26,2.26,0,0,0-2.7,0c-2.38,1.38-4.13,5.36-3.6,8.13-3.07,1.56-5.79,1.17-7.61-.76-1,2.78-.5,5.41,1.14,5.92a2.6,2.6,0,0,1-1.67.35c0,2.31,1.19,3.73,3,3.18A4.63,4.63,0,0,1,58,76.4a2.18,2.18,0,0,0,3.45,1.43A12.84,12.84,0,0,1,56,83,7.41,7.41,0,0,0,61.64,82c3.65-2.11,6.46-5.92,8.25-10" style="fill:#fff"></path></g><g id="freepik--social-icon--inject-27"><path d="M44.15,112.69l22.48-13a7.73,7.73,0,0,1,7,0l2.84,1.64a7.72,7.72,0,0,1,3.48,6v26a7.73,7.73,0,0,1-3.48,6L54,152.36a7.67,7.67,0,0,1-7,0l-2.84-1.64a7.7,7.7,0,0,1-3.48-6V118.73A7.72,7.72,0,0,1,44.15,112.69Z" style="fill:#FF81AE"></path><path d="M44.15,112.69l22.48-13a7.73,7.73,0,0,1,7,0l2.84,1.64a7.72,7.72,0,0,1,3.48,6v26a7.73,7.73,0,0,1-3.48,6L54,152.36a7.67,7.67,0,0,1-7,0l-2.84-1.64a7.7,7.7,0,0,1-3.48-6V118.73A7.72,7.72,0,0,1,44.15,112.69Z" style="fill:#fff;opacity:0.7000000000000001"></path><path d="M79.93,107.39c0-2.22-1.56-3.12-3.48-2L54,118.36a7.69,7.69,0,0,0-3.49,6v25.95c0,2.22,1.57,3.13,3.49,2l22.48-13a7.73,7.73,0,0,0,3.48-6Z" style="fill:#FF81AE"></path><path d="M79.93,107.39c0-2.22-1.56-3.12-3.48-2L54,118.36a7.69,7.69,0,0,0-3.49,6v25.95c0,2.22,1.57,3.13,3.49,2l22.48-13a7.73,7.73,0,0,0,3.48-6Z" style="fill:#fff;opacity:0.55"></path><path d="M40.67,144.68a7.7,7.7,0,0,0,3.48,6L47,152.36a7.77,7.77,0,0,0,6.39.28c-1.65.62-2.9-.3-2.9-2.29V124.4a7.11,7.11,0,0,1,1-3.44l-9.81-5.67a7.15,7.15,0,0,0-1,3.44Z" style="fill:#FF81AE"></path><path d="M40.67,144.68a7.7,7.7,0,0,0,3.48,6L47,152.36a7.77,7.77,0,0,0,6.39.28c-1.65.62-2.9-.3-2.9-2.29V124.4a7.11,7.11,0,0,1,1-3.44l-9.81-5.67a7.15,7.15,0,0,0-1,3.44Z" style="fill:#fff;opacity:0.4"></path><path d="M62.63,142.07l3.75-2.16V127.39L69,125.88l.28-4.35-2.9,1.67v-2.39c0-1,.15-1.46.87-1.88l2-1.17v-4.35l-2.6,1.5A7.62,7.62,0,0,0,62.63,122v3.34l-2,1.13v4.24l2-1.12Z" style="fill:#fff"></path></g><g id="freepik--social-icon--inject-27"><path d="M44.15,171.52l22.48-13a7.65,7.65,0,0,1,7,0l2.85,1.64a7.7,7.7,0,0,1,3.48,6v26a7.72,7.72,0,0,1-3.48,6L54,211.2a7.73,7.73,0,0,1-7,0l-2.84-1.64a7.74,7.74,0,0,1-3.48-6.05V177.56A7.72,7.72,0,0,1,44.15,171.52Z" style="fill:#FF81AE"></path><path d="M44.15,171.52l22.48-13a7.65,7.65,0,0,1,7,0l2.85,1.64a7.7,7.7,0,0,1,3.48,6v26a7.72,7.72,0,0,1-3.48,6L54,211.2a7.73,7.73,0,0,1-7,0l-2.84-1.64a7.74,7.74,0,0,1-3.48-6.05V177.56A7.72,7.72,0,0,1,44.15,171.52Z" style="fill:#fff;opacity:0.7000000000000001"></path><path d="M79.93,166.23c0-2.23-1.56-3.13-3.48-2L54,177.19a7.7,7.7,0,0,0-3.49,6v26c0,2.23,1.56,3.13,3.49,2l22.48-13a7.72,7.72,0,0,0,3.48-6Z" style="fill:#FF81AE"></path><path d="M79.93,166.23c0-2.23-1.56-3.13-3.48-2L54,177.19a7.7,7.7,0,0,0-3.49,6v26c0,2.23,1.56,3.13,3.49,2l22.48-13a7.72,7.72,0,0,0,3.48-6Z" style="fill:#fff;opacity:0.55"></path><path d="M40.67,203.51a7.74,7.74,0,0,0,3.48,6.05L47,211.2a7.85,7.85,0,0,0,6.39.28c-1.65.62-2.9-.31-2.9-2.3v-26a7.18,7.18,0,0,1,1-3.44l-9.81-5.66a7.11,7.11,0,0,0-1,3.43Z" style="fill:#FF81AE"></path><path d="M40.67,203.51a7.74,7.74,0,0,0,3.48,6.05L47,211.2a7.85,7.85,0,0,0,6.39.28c-1.65.62-2.9-.31-2.9-2.3v-26a7.18,7.18,0,0,1,1-3.44l-9.81-5.66a7.11,7.11,0,0,0-1,3.43Z" style="fill:#fff;opacity:0.4"></path><path d="M65,178.66c2.3-1.33,2.57-1.47,3.48-1.94a3.85,3.85,0,0,1,1.6-.53,1.37,1.37,0,0,1,1,.29,1.77,1.77,0,0,1,.64,1,6.21,6.21,0,0,1,.3,2c0,1.18.05,1.54.05,4.61s0,3.43-.05,4.67a10.36,10.36,0,0,1-.3,2.3,6.77,6.77,0,0,1-.64,1.69,6.55,6.55,0,0,1-1,1.44,7.35,7.35,0,0,1-1.6,1.31c-.91.58-1.18.75-3.48,2.08s-2.57,1.47-3.48,1.94a3.85,3.85,0,0,1-1.6.53,1.37,1.37,0,0,1-1-.29,1.77,1.77,0,0,1-.64-.95,6.21,6.21,0,0,1-.3-2c0-1.18,0-1.54,0-4.61s0-3.43,0-4.67a10.36,10.36,0,0,1,.3-2.3,6.77,6.77,0,0,1,.64-1.69,6.25,6.25,0,0,1,1-1.43,7,7,0,0,1,1.6-1.32c.91-.58,1.18-.75,3.48-2.08m0-2.07c-2.34,1.35-2.63,1.53-3.55,2.12a10,10,0,0,0-3.62,3.95,11.14,11.14,0,0,0-1,2.6,14.1,14.1,0,0,0-.4,3c0,1.25-.05,1.65-.05,4.77s0,3.5.05,4.7a8.47,8.47,0,0,0,.4,2.56,2.89,2.89,0,0,0,1,1.46,2.14,2.14,0,0,0,1.53.44,5.16,5.16,0,0,0,2.09-.67c.92-.47,1.21-.63,3.55-2s2.63-1.53,3.55-2.12a10,10,0,0,0,3.62-3.95,11.14,11.14,0,0,0,1-2.6,14.1,14.1,0,0,0,.4-3c0-1.25,0-1.65,0-4.77s0-3.5,0-4.7a8.47,8.47,0,0,0-.4-2.56,2.89,2.89,0,0,0-1-1.46,2.14,2.14,0,0,0-1.53-.44,5.16,5.16,0,0,0-2.09.67c-.92.47-1.21.63-3.55,2" style="fill:#fff"></path><path d="M65,182.18c-2.44,1.41-4.42,5.19-4.42,8.45s2,4.75,4.42,3.34,4.42-5.19,4.42-8.45-2-4.75-4.42-3.34m0,9.72c-1.59.92-2.87-.05-2.87-2.17A6.85,6.85,0,0,1,65,184.25c1.59-.92,2.87.05,2.87,2.17A6.85,6.85,0,0,1,65,191.9" style="fill:#fff"></path><path d="M68.67,180c0,.76.47,1.11,1,.78a2.49,2.49,0,0,0,1-2c0-.76-.46-1.11-1-.78a2.5,2.5,0,0,0-1,2" style="fill:#fff"></path></g></g></svg>